<?xml version="1.0" standalone="no"?>
<!DOCTYPE svg PUBLIC "-//W3C//DTD SVG 20010904//EN"
 "http://www.w3.org/TR/2001/REC-SVG-20010904/DTD/svg10.dtd">
<svg version="1.0" xmlns="http://www.w3.org/2000/svg"
 width="5538.000000pt" height="4514.000000pt" viewBox="0 0 5538.000000 4514.000000"
 preserveAspectRatio="xMidYMid meet">

<g transform="translate(0.000000,4514.000000) scale(0.100000,-0.100000)"
fill="#000000" stroke="none">
<path d="M42570 41970 c-25 -5 -63 -12 -85 -15 -116 -20 -297 -96 -423 -179
-111 -72 -240 -203 -291 -295 -8 -13 -14 -14 -45 -3 -19 7 -43 15 -53 16 -10
2 -45 12 -78 22 -33 10 -66 19 -72 20 -7 1 -41 11 -75 22 -56 17 -108 31 -123
33 -2 0 -18 4 -34 9 -60 17 -99 0 -416 -181 -22 -12 -93 -53 -159 -89 -147
-83 -178 -108 -205 -163 -31 -64 -27 -133 19 -321 23 -90 42 -172 45 -183 6
-30 22 -93 48 -193 14 -53 28 -107 31 -120 19 -97 52 -212 72 -252 39 -77 66
-91 359 -174 88 -25 198 -57 245 -70 47 -14 92 -26 100 -28 8 -2 42 -12 75
-22 33 -10 62 -18 65 -19 13 -3 129 -36 157 -45 18 -6 40 -13 50 -15 54 -13
208 -57 219 -63 8 -5 -5 -67 -52 -232 -35 -123 -64 -230 -64 -236 0 -18 -20
-22 -106 -24 -44 0 -97 -2 -119 -4 -54 -5 -207 -24 -250 -32 -10 -2 -37 -6
-60 -9 -22 -4 -56 -10 -75 -15 -19 -5 -48 -11 -65 -14 -84 -15 -328 -87 -445
-131 -384 -147 -660 -312 -897 -538 -246 -236 -423 -531 -519 -867 -20 -73
-32 -129 -69 -325 -26 -137 -26 -636 0 -825 2 -14 8 -72 15 -130 6 -58 17
-134 25 -170 7 -36 16 -87 19 -115 4 -27 11 -63 16 -80 5 -16 11 -47 15 -68 6
-43 10 -61 56 -252 17 -71 33 -138 35 -147 10 -42 14 -60 49 -188 20 -74 38
-139 39 -145 2 -5 6 -23 11 -40 4 -16 36 -131 71 -255 36 -124 72 -252 81
-285 8 -33 21 -78 28 -100 12 -36 32 -107 41 -145 4 -18 17 -67 38 -140 8 -30
12 -57 7 -60 -8 -5 -130 -99 -386 -295 -79 -60 -207 -159 -286 -219 l-142
-109 -24 29 c-13 16 -92 118 -175 227 -83 108 -166 211 -184 227 -63 55 -181
69 -255 30 -13 -7 -97 -69 -186 -136 l-161 -124 -70 93 c-38 50 -103 135 -143
187 -40 52 -102 133 -138 180 -36 47 -88 114 -115 150 -28 36 -176 229 -330
430 -393 514 -368 484 -427 509 -57 25 -127 29 -182 9 -20 -7 -178 -121 -349
-253 -172 -132 -400 -307 -508 -390 -447 -342 -446 -341 -469 -389 -30 -65
-29 -157 3 -213 14 -23 121 -167 238 -320 118 -153 252 -327 298 -388 46 -60
107 -139 134 -175 227 -293 477 -622 479 -630 1 -5 -81 -73 -183 -150 -256
-196 -268 -206 -291 -253 -12 -22 -24 -66 -26 -98 -7 -72 20 -133 103 -239
125 -157 274 -356 274 -366 -1 -8 -156 -128 -773 -599 -136 -104 -264 -202
-377 -289 -36 -28 -200 -154 -365 -280 -165 -126 -365 -279 -445 -341 -300
-230 -587 -451 -965 -740 -214 -164 -601 -461 -860 -659 -258 -198 -526 -403
-595 -455 -69 -53 -188 -144 -265 -203 -77 -60 -183 -141 -235 -181 -52 -41
-100 -77 -107 -80 -7 -5 -77 78 -187 222 -96 125 -189 240 -205 254 -33 28
-77 45 -130 51 -82 9 -103 -4 -717 -475 -324 -248 -669 -513 -768 -588 -98
-75 -204 -156 -236 -181 -32 -25 -99 -76 -150 -115 -50 -38 -146 -112 -213
-163 l-121 -94 -23 29 c-13 15 -92 117 -175 226 -173 227 -200 249 -302 253
-80 4 -115 -12 -252 -117 -173 -132 -256 -196 -403 -309 -75 -58 -152 -118
-173 -133 l-36 -28 -209 273 c-115 150 -335 437 -489 638 -154 201 -329 429
-390 508 -115 151 -289 378 -389 508 -106 138 -495 646 -670 874 -433 566
-406 533 -464 563 -70 35 -147 37 -208 4 -23 -12 -136 -94 -250 -182 -114 -88
-264 -203 -333 -255 -69 -53 -163 -125 -210 -161 -151 -116 -281 -216 -455
-349 -93 -72 -205 -157 -249 -190 -43 -34 -82 -59 -87 -58 -10 4 -169 208
-169 217 0 6 264 210 917 710 160 122 186 159 187 260 0 36 -3 91 -7 121 -5
30 -10 66 -12 80 -2 14 -6 43 -9 65 -3 22 -8 60 -11 85 -3 25 -7 52 -9 60 -3
8 -7 45 -11 82 -3 37 -8 77 -10 90 -2 13 -7 46 -10 73 -4 28 -9 59 -10 70 -2
11 -9 63 -16 115 -6 52 -20 111 -30 130 -38 77 -113 123 -217 135 -26 3 -56 8
-67 10 -11 2 -47 7 -80 10 -33 4 -76 10 -95 15 -19 5 -66 11 -105 15 -38 3
-77 8 -85 10 -29 9 -85 16 -161 20 -61 4 -82 1 -111 -15 -31 -16 -255 -183
-381 -284 l-38 -31 -32 19 c-122 72 -162 92 -237 118 -46 16 -107 34 -135 39
-27 5 -61 11 -74 14 -34 6 -302 8 -331 1 -14 -3 -43 -8 -65 -10 -149 -20 -345
-94 -508 -194 -296 -181 -531 -468 -632 -772 -44 -132 -57 -207 -60 -355 -4
-145 5 -208 44 -335 11 -35 19 -65 18 -65 -4 -3 -181 -138 -284 -217 -149
-115 -154 -123 -174 -293 -6 -55 -12 -109 -14 -120 -1 -11 -6 -49 -10 -85 -4
-36 -9 -73 -10 -82 -2 -9 -6 -48 -10 -85 -3 -37 -8 -82 -10 -99 -3 -16 -6 -60
-6 -96 -1 -55 4 -75 26 -117 16 -28 44 -60 64 -74 35 -22 152 -77 165 -77 3 0
25 -9 49 -19 23 -11 114 -49 202 -86 88 -36 196 -81 240 -100 224 -93 229 -95
285 -95 32 0 72 8 96 19 23 11 138 93 255 183 118 90 330 252 471 361 141 108
261 197 267 197 13 0 173 -209 169 -221 -2 -5 -64 -55 -138 -112 -1402 -1071
-1347 -1027 -1372 -1084 -25 -58 -25 -139 0 -196 36 -79 73 -102 258 -166 311
-107 398 -139 609 -224 116 -47 226 -92 245 -100 19 -9 69 -30 110 -48 293
-123 1022 -484 1213 -600 26 -16 49 -29 51 -29 2 0 57 -31 123 -68 644 -373
1206 -749 1763 -1183 118 -92 232 -182 253 -200 l38 -34 -48 -36 c-84 -63
-320 -244 -548 -419 -136 -105 -322 -248 -355 -273 l-36 -26 -149 196 c-187
245 -194 253 -237 254 -38 1 -92 5 -193 13 -38 3 -99 8 -135 11 -36 2 -94 7
-130 9 -36 3 -105 8 -155 11 -49 3 -115 7 -145 10 -88 8 -158 13 -270 20 -58
4 -112 9 -122 10 -9 2 -61 6 -115 10 -97 6 -168 11 -273 20 -30 2 -93 7 -140
10 -47 3 -110 8 -140 10 -30 3 -89 7 -130 10 -41 3 -100 8 -130 10 -30 2 -93
7 -140 10 -47 4 -105 8 -129 10 -41 4 -49 0 -160 -86 -64 -49 -278 -213 -476
-365 -198 -152 -448 -343 -555 -425 -107 -82 -253 -194 -325 -249 -71 -55
-245 -188 -385 -295 -140 -107 -300 -230 -355 -272 -55 -42 -168 -129 -251
-193 -83 -63 -397 -304 -698 -535 -301 -231 -607 -465 -679 -520 -73 -56 -175
-134 -227 -174 -52 -40 -135 -104 -185 -142 -49 -38 -166 -127 -260 -199 -93
-72 -237 -182 -320 -245 -82 -63 -216 -166 -297 -228 -637 -489 -882 -676
-1293 -991 -258 -198 -513 -392 -565 -433 -136 -105 -948 -728 -1120 -859
-170 -130 -710 -544 -1062 -814 -135 -104 -418 -320 -627 -480 -209 -160 -380
-295 -379 -298 2 -9 -12 -90 -47 -262 -8 -41 -17 -93 -20 -115 -4 -22 -10 -53
-15 -70 -5 -16 -13 -61 -20 -100 -6 -38 -24 -140 -41 -225 -17 -85 -33 -168
-35 -185 -3 -16 -7 -41 -10 -55 -3 -14 -8 -36 -10 -50 -4 -23 -29 -153 -70
-365 -9 -44 -22 -114 -29 -155 -8 -41 -17 -86 -20 -100 -3 -14 -9 -50 -15 -80
-12 -67 -16 -85 -35 -180 -8 -41 -17 -93 -20 -115 -4 -22 -10 -53 -15 -70 -5
-16 -16 -75 -25 -130 -9 -55 -18 -107 -20 -116 -3 -9 41 -74 107 -161 276
-358 329 -429 326 -438 -2 -5 -142 -116 -313 -246 -170 -131 -461 -353 -645
-495 -184 -141 -370 -283 -412 -315 -42 -33 -147 -113 -233 -179 -86 -66 -200
-153 -252 -193 l-96 -73 -2 -147 c-2 -81 -5 -156 -8 -167 -2 -11 -8 -40 -12
-65 -22 -131 -136 -387 -248 -555 -215 -324 -526 -614 -881 -824 -88 -52 -279
-146 -346 -171 -19 -7 -48 -18 -65 -25 -37 -16 -225 -70 -280 -81 -22 -4 -47
-9 -55 -10 -102 -22 -343 -30 -438 -14 -41 6 -115 25 -164 41 -50 16 -95 26
-102 22 -30 -19 -933 -714 -1081 -834 -375 -302 -627 -530 -1006 -908 -437
-438 -701 -748 -936 -1101 -205 -307 -322 -554 -379 -795 -44 -184 -41 -396 6
-524 l19 -54 -72 -67 c-40 -36 -313 -286 -607 -555 -783 -716 -1120 -1025
-1120 -1030 0 -3 524 328 665 420 28 18 133 86 235 150 102 65 244 155 315
201 72 46 177 113 235 149 58 36 217 138 354 225 138 88 255 160 262 160 7 0
16 -4 19 -10 21 -33 222 -120 325 -140 142 -27 365 -29 506 -4 16 3 40 7 54 9
78 14 236 50 307 71 45 14 90 27 100 29 26 5 144 44 168 55 11 5 81 32 155 61
74 28 154 60 177 70 23 11 44 19 47 19 13 0 441 209 548 268 29 16 94 51 143
77 50 27 216 124 370 217 539 324 863 550 1520 1057 83 64 185 143 228 176 43
33 145 111 225 173 81 61 224 170 317 242 94 71 213 163 265 203 52 40 509
390 1015 778 506 388 970 743 1030 789 517 397 1046 802 1118 858 49 37 179
137 290 222 111 86 270 207 352 270 83 62 167 127 188 144 l39 31 21 -26 c12
-14 113 -145 225 -291 l203 -265 92 -7 c51 -3 115 -8 142 -11 28 -2 95 -7 150
-10 55 -3 116 -8 135 -10 19 -3 64 -7 100 -10 36 -2 103 -7 150 -11 130 -10
157 -12 265 -18 55 -3 123 -8 150 -11 28 -3 86 -7 130 -10 44 -3 105 -7 135
-10 95 -9 152 -14 250 -20 52 -4 111 -8 130 -10 19 -2 76 -6 125 -10 201 -13
232 -15 290 -20 33 -3 90 -8 126 -10 l67 -5 438 337 c683 523 1129 865 1329
1018 101 77 219 167 262 200 43 33 186 143 318 244 132 101 276 212 320 246
85 65 399 305 1605 1230 415 318 791 606 835 640 296 227 1164 893 1435 1100
179 137 420 321 535 410 116 88 433 331 705 540 272 209 565 433 651 500 86
66 248 190 360 275 111 85 285 218 385 295 100 77 263 201 361 276 98 75 219
168 268 206 139 107 360 276 362 277 0 1 4 18 7 38 3 21 10 57 15 80 6 24 13
59 16 78 3 19 8 49 11 65 3 17 9 48 14 70 5 22 12 56 15 75 3 19 14 80 24 135
11 55 23 118 27 140 4 22 9 47 10 55 4 18 73 385 80 420 2 14 9 45 14 70 5 25
12 61 15 80 3 19 12 67 20 105 8 39 23 120 35 180 24 129 26 144 40 210 14 67
17 86 24 129 3 19 10 55 15 78 6 24 13 59 16 78 3 19 14 80 25 135 36 187 36
176 -6 231 -21 27 -117 153 -214 279 -97 127 -180 235 -183 242 -5 7 15 29 50
55 32 25 234 179 448 343 215 165 462 354 550 421 88 67 163 120 167 118 4 -3
30 -43 59 -90 50 -84 51 -86 33 -104 -11 -10 -206 -161 -434 -335 -228 -175
-421 -324 -429 -331 -14 -13 -35 15 534 -728 143 -186 305 -397 360 -470 99
-129 191 -249 288 -374 l48 -63 -6 -97 c-6 -105 -6 -651 0 -717 2 -22 6 -73
10 -114 13 -149 75 -417 132 -565 38 -102 113 -253 174 -353 195 -319 579
-672 989 -909 208 -121 473 -220 665 -250 22 -3 58 -9 80 -13 23 -4 94 -9 160
-10 66 -1 120 -3 121 -4 3 -4 605 -791 714 -933 63 -82 230 -300 370 -483 140
-183 305 -397 365 -476 61 -79 157 -205 215 -281 58 -75 139 -181 180 -235 41
-53 128 -166 192 -251 65 -84 191 -247 279 -363 89 -115 193 -252 231 -302 39
-51 75 -93 82 -94 14 -1 73 -16 206 -54 23 -6 173 -46 190 -50 8 -2 105 -26
215 -53 218 -55 557 -132 710 -162 28 -5 61 -12 75 -15 14 -3 41 -8 60 -11 19
-3 55 -10 80 -16 25 -5 54 -11 65 -13 144 -27 273 -49 375 -65 69 -11 135 -22
148 -24 13 -3 87 -14 165 -26 78 -11 153 -22 167 -25 14 -2 48 -7 75 -10 100
-11 211 -25 233 -30 13 -2 51 -7 85 -10 34 -3 82 -8 107 -10 103 -12 128 -14
200 -20 41 -3 89 -8 105 -10 27 -4 87 -10 200 -20 22 -2 87 -6 145 -10 58 -3
130 -8 160 -11 61 -5 138 -9 370 -19 85 -3 196 -8 245 -10 103 -5 957 -5 1025
0 25 1 140 6 256 9 117 4 238 9 270 11 33 2 102 6 154 10 52 3 118 8 145 10
28 2 88 6 135 10 113 8 176 14 230 20 25 3 77 7 117 10 40 3 87 8 105 10 18 2
78 9 133 15 55 6 111 13 125 15 14 2 86 11 160 20 74 8 144 17 155 19 20 4 83
12 156 21 20 3 76 11 125 20 49 8 109 17 134 20 25 3 72 10 105 16 33 5 87 14
120 19 33 5 85 14 115 20 30 6 67 13 82 15 15 3 72 14 125 24 54 11 125 24
158 30 33 6 69 13 80 15 11 3 67 14 125 26 58 11 112 23 120 25 8 1 89 19 180
39 91 21 228 53 305 72 77 19 147 36 155 38 8 1 24 5 35 9 11 3 31 9 45 11 40
9 260 65 315 81 83 24 197 56 214 61 20 5 182 51 241 69 25 7 77 23 115 35 39
11 75 22 80 23 80 23 664 215 690 227 11 5 47 18 80 29 33 12 98 35 145 52 47
17 115 41 151 54 36 13 117 44 180 69 63 24 157 60 209 80 100 39 106 41 182
75 26 12 50 21 53 21 5 0 165 66 230 95 17 7 84 36 150 65 288 123 652 293
1000 468 149 74 284 142 300 150 39 20 358 192 410 222 22 12 96 54 165 93
337 188 799 473 1170 720 931 621 1901 1408 2671 2165 137 134 229 217 232
210 3 -7 56 -79 119 -160 62 -80 162 -211 222 -290 188 -245 215 -277 259
-300 55 -28 157 -31 207 -5 19 9 175 124 345 255 171 131 465 357 655 502 190
146 379 291 421 323 88 67 127 127 132 203 5 68 -14 118 -76 199 -57 76 -285
373 -379 495 -32 41 -97 127 -145 190 -48 63 -164 214 -257 335 l-169 219 28
86 c15 47 33 102 41 123 8 20 12 37 9 37 -2 0 0 11 5 24 11 29 56 241 65 306
3 25 8 56 10 70 22 142 22 391 0 592 -5 44 -34 207 -40 228 -2 8 -6 26 -9 40
-17 89 -84 301 -126 395 -9 22 -25 63 -35 90 -29 77 -173 356 -259 498 -339
565 -755 950 -1261 1168 -73 32 -267 99 -303 105 -15 3 -54 12 -87 21 -33 8
-73 17 -90 20 -16 2 -67 10 -113 17 -178 28 -513 27 -700 -3 l-53 -8 -147 191
c-80 105 -221 288 -312 406 -91 119 -205 268 -253 331 -104 138 -152 171 -246
171 -74 0 -110 -16 -222 -102 -52 -40 -134 -103 -184 -141 -49 -38 -146 -112
-215 -165 -69 -52 -179 -137 -245 -187 -66 -50 -181 -139 -256 -197 -76 -58
-208 -159 -294 -225 -87 -66 -172 -137 -191 -158 -34 -41 -49 -91 -47 -163 2
-67 8 -77 250 -391 35 -46 93 -122 130 -170 37 -49 86 -113 110 -143 24 -30
43 -58 43 -61 0 -8 -601 -465 -607 -462 -4 2 -81 102 -289 373 -44 58 -144
188 -222 290 -380 495 -1065 1389 -1325 1728 -127 167 -286 374 -352 460 -67
87 -196 256 -289 376 l-168 219 32 128 c17 71 33 138 36 149 2 11 6 28 8 38 2
9 10 40 16 67 6 28 14 58 16 68 2 9 6 27 9 40 2 12 21 94 40 182 20 88 42 189
50 225 8 36 23 103 34 150 11 47 22 99 25 115 3 17 22 109 42 205 19 96 42
207 49 245 8 39 16 81 19 95 11 48 26 125 31 160 3 19 8 42 10 50 2 8 7 31 10
50 3 19 8 42 10 50 2 8 7 35 10 60 4 24 8 47 11 51 2 3 6 24 8 45 3 21 12 75
21 119 8 44 24 138 36 210 11 71 24 147 29 170 5 22 12 63 15 90 3 28 10 70
15 95 4 25 13 77 19 115 17 111 21 133 26 163 3 16 7 44 9 63 3 19 9 66 15
104 6 39 12 86 15 105 3 19 10 69 16 110 6 41 13 89 15 105 2 17 9 64 15 105
6 41 13 93 16 115 2 22 7 60 11 85 3 25 7 56 9 70 9 80 16 136 19 150 2 8 6
44 10 80 4 36 9 73 11 83 2 10 6 46 9 80 8 85 12 122 20 192 10 86 12 101 20
190 4 44 9 88 10 97 2 10 7 55 10 100 3 46 8 99 11 118 2 19 6 60 9 90 2 30 7
87 10 125 4 39 8 97 10 130 3 33 7 96 11 140 11 128 11 134 18 260 3 66 9 149
12 185 11 140 25 441 39 865 6 176 6 1117 0 1280 -2 77 -7 210 -10 295 -3 85
-7 178 -10 205 -3 28 -7 104 -10 170 -5 113 -9 178 -20 320 -3 33 -7 92 -10
130 -6 81 -11 133 -25 265 -5 52 -12 125 -16 161 -3 36 -7 79 -9 95 -2 16 -7
54 -10 84 -3 30 -8 66 -10 80 -5 28 -33 242 -41 310 -3 25 -7 56 -9 70 -2 14
-7 43 -10 65 -7 46 -16 95 -19 110 -2 6 -6 33 -10 60 -9 58 -40 199 -66 301
-11 39 -21 81 -24 95 -17 83 -118 378 -189 549 -213 519 -498 957 -871 1339
-328 334 -642 552 -1055 730 -52 23 -99 41 -105 41 -6 0 -17 4 -25 9 -11 7 -8
29 19 122 62 218 72 249 80 254 5 3 30 -2 55 -11 26 -8 55 -17 64 -19 9 -2
198 -56 421 -120 223 -64 434 -125 470 -135 36 -11 90 -26 120 -35 30 -9 63
-18 73 -20 9 -2 22 -7 27 -10 6 -4 38 -6 71 -6 48 0 71 6 109 28 71 41 689
643 720 701 28 52 36 147 17 191 -12 27 -91 175 -144 271 -17 30 -49 91 -73
135 -110 208 -128 233 -192 266 -20 10 -138 47 -263 83 -124 35 -229 66 -232
70 -3 3 -7 36 -9 73 -14 286 -181 590 -437 796 -187 151 -365 239 -607 299
-116 29 -140 31 -325 34 -110 1 -220 -1 -245 -6z m402 -469 c208 -43 361 -116
507 -240 100 -85 200 -233 217 -320 7 -31 5 -34 -12 -27 -10 4 -158 48 -329
97 -170 50 -314 91 -320 93 -5 2 -23 6 -40 11 -44 11 -388 110 -470 135 -38
11 -95 28 -125 36 -30 9 -77 23 -105 31 l-49 16 34 29 c50 41 129 85 197 109
55 19 71 23 153 38 82 16 245 12 342 -8z m-1544 -427 c18 -8 31 -18 28 -22 -2
-4 -7 -35 -11 -67 -3 -33 -8 -67 -10 -75 -5 -18 -7 -32 -34 -205 -22 -138 -26
-167 -42 -285 -6 -41 -12 -77 -15 -79 -2 -2 -30 4 -61 13 -32 9 -67 19 -77 21
-68 15 -86 27 -95 63 -9 32 -55 223 -66 271 -3 9 -12 45 -20 81 -24 94 -26
102 -31 130 -4 24 6 32 138 107 79 45 150 83 158 86 15 4 75 -13 138 -39z
m332 -90 c47 -14 99 -30 115 -34 202 -56 245 -69 253 -74 4 -3 19 -7 33 -9 13
-3 51 -13 84 -23 33 -10 62 -18 65 -19 3 0 49 -13 103 -30 94 -28 98 -30 94
-55 -5 -27 -189 -672 -194 -679 -1 -2 -35 6 -74 19 -39 12 -76 23 -83 24 -6 1
-38 10 -71 20 -33 10 -67 19 -75 21 -8 2 -55 15 -105 30 -87 26 -121 36 -175
50 -14 4 -62 18 -107 32 -73 22 -81 27 -78 46 3 12 11 69 19 127 9 58 18 116
20 129 3 13 8 49 12 80 3 31 8 59 10 62 1 3 6 28 9 55 3 27 10 72 15 99 5 28
12 74 15 103 4 29 12 52 18 52 7 0 50 -12 97 -26z m1681 -483 c35 -10 76 -22
91 -25 25 -6 26 -8 17 -39 -6 -17 -24 -79 -40 -137 -33 -114 -31 -108 -84
-290 -20 -69 -38 -134 -40 -146 -11 -50 -34 -99 -46 -97 -33 4 -73 15 -88 22
-9 5 -20 10 -26 10 -52 8 -53 10 -39 59 15 48 73 249 78 267 1 6 10 37 20 70
10 33 20 67 22 75 7 31 69 250 70 250 1 0 30 -9 65 -19z m754 -217 c50 -14
121 -34 159 -45 38 -10 70 -20 71 -21 1 -2 28 -52 60 -113 32 -60 68 -129 81
-152 l23 -41 -201 -194 c-118 -113 -208 -192 -217 -190 -39 7 -277 75 -283 81
-4 4 -1 29 7 56 8 28 24 84 36 125 12 41 30 102 41 135 10 33 20 71 23 83 2
12 15 60 29 105 14 45 32 108 41 140 9 31 22 57 28 57 7 0 53 -12 102 -26z
m-2050 -1585 c39 -5 81 -11 95 -13 14 -2 45 -7 70 -11 25 -3 63 -11 85 -16 22
-6 65 -17 95 -25 759 -196 1453 -817 1875 -1679 140 -286 232 -533 295 -790
17 -71 35 -146 41 -166 13 -51 38 -198 59 -344 6 -44 13 -91 15 -105 8 -52 16
-109 20 -146 5 -37 7 -52 19 -149 6 -40 11 -86 21 -180 3 -27 8 -66 10 -85 3
-19 7 -66 10 -105 4 -38 8 -86 10 -105 2 -19 7 -68 10 -108 3 -41 8 -90 10
-110 2 -20 6 -82 10 -137 3 -55 8 -120 10 -145 2 -25 7 -97 10 -160 3 -63 8
-140 10 -170 12 -168 20 -569 20 -1055 0 -642 -9 -966 -41 -1465 -3 -47 -7
-114 -9 -150 -11 -202 -19 -317 -40 -540 -3 -30 -7 -80 -10 -110 -2 -30 -7
-84 -10 -120 -6 -66 -8 -86 -20 -225 -3 -44 -8 -91 -10 -105 -3 -14 -7 -50
-10 -80 -4 -30 -8 -68 -10 -85 -2 -16 -6 -59 -9 -95 -6 -59 -11 -102 -21 -170
-2 -14 -9 -71 -15 -127 -6 -56 -13 -110 -15 -122 -2 -11 -7 -51 -10 -88 -4
-37 -8 -75 -10 -83 -3 -8 -7 -37 -10 -65 -3 -27 -8 -63 -11 -80 -3 -16 -7 -46
-10 -65 -13 -103 -33 -250 -39 -290 -3 -14 -9 -59 -15 -101 -6 -41 -12 -84
-14 -95 -6 -34 -17 -98 -21 -129 -3 -26 -28 -183 -40 -255 -2 -14 -7 -42 -10
-64 -4 -21 -9 -48 -11 -60 -2 -11 -7 -39 -9 -61 -3 -22 -12 -74 -20 -115 -8
-41 -17 -88 -20 -105 -4 -29 -25 -144 -45 -250 -21 -113 -72 -381 -75 -400
-14 -64 -77 -384 -81 -405 -4 -24 -26 -125 -60 -285 -8 -38 -22 -99 -30 -135
-22 -93 -23 -97 -39 -178 -8 -40 -24 -109 -34 -155 -11 -45 -34 -140 -51 -212
-16 -71 -33 -141 -37 -155 -3 -14 -7 -29 -9 -35 -59 -246 -165 -659 -230 -895
-26 -91 -59 -214 -75 -275 -17 -60 -36 -130 -44 -155 -35 -110 -57 -182 -59
-193 -5 -27 -52 -182 -126 -417 -23 -74 -110 -337 -192 -585 -82 -247 -151
-454 -152 -460 -3 -15 -46 -154 -67 -215 -10 -30 -24 -80 -33 -110 -8 -30 -28
-101 -45 -157 -17 -56 -35 -119 -40 -140 -5 -21 -33 -128 -61 -238 -28 -110
-55 -220 -61 -245 -5 -25 -11 -52 -13 -60 -3 -8 -5 -24 -6 -35 -1 -19 -1 -19
-12 -1 -10 18 -6 457 6 579 3 26 8 83 11 125 4 42 9 84 11 93 3 10 7 32 9 50
7 56 17 133 20 149 1 8 8 49 14 90 11 67 33 179 61 310 10 46 30 134 73 320
55 234 87 392 116 565 51 304 50 298 71 483 6 51 12 110 15 130 10 92 17 167
20 225 4 69 7 401 5 487 l-2 55 -14 -44 c-7 -25 -23 -94 -34 -155 -11 -61 -22
-122 -25 -136 -3 -13 -7 -42 -10 -65 -20 -154 -76 -435 -135 -680 -22 -93 -48
-199 -56 -235 -8 -36 -20 -78 -25 -95 -5 -16 -20 -66 -33 -110 -65 -217 -171
-456 -307 -695 -94 -164 -263 -419 -336 -506 l-33 -39 31 75 c57 140 153 406
183 510 33 116 65 236 71 270 3 19 10 53 16 75 5 22 16 81 24 130 8 50 17 101
19 115 9 47 19 142 31 269 7 83 8 485 1 542 -3 24 -8 76 -11 114 -8 104 -39
318 -59 400 -2 11 -12 54 -21 95 -60 263 -185 629 -302 885 -59 128 -215 436
-219 432 -4 -3 48 -142 65 -177 4 -8 16 -42 25 -75 10 -33 24 -78 32 -100 33
-98 109 -453 129 -610 3 -22 8 -58 11 -80 3 -22 7 -53 9 -70 2 -16 6 -55 9
-85 20 -169 38 -567 31 -680 -3 -52 -7 -144 -10 -205 -13 -286 -53 -590 -102
-780 -8 -33 -16 -67 -18 -75 -6 -29 -55 -199 -64 -222 -5 -13 -19 -50 -32 -83
-95 -256 -245 -476 -404 -595 -143 -106 -310 -148 -500 -127 -103 12 -127 18
-213 53 -329 136 -593 438 -857 980 -36 74 -65 136 -65 139 0 2 -11 28 -24 57
-66 144 -196 511 -264 743 -60 203 -104 364 -118 425 -4 19 -8 37 -9 40 -15
55 -55 220 -60 250 -3 19 -10 49 -15 65 -8 28 -53 243 -64 308 -13 74 -15 72
-90 -75 -40 -79 -78 -152 -84 -163 -98 -173 -122 -216 -122 -220 0 -7 -189
-324 -248 -415 -31 -47 -75 -115 -98 -151 l-43 -66 29 -169 c17 -93 37 -207
45 -254 8 -47 26 -152 40 -235 14 -82 27 -160 29 -171 2 -12 7 -39 11 -60 21
-134 49 -300 60 -354 2 -13 7 -40 10 -60 3 -20 7 -45 9 -55 2 -11 11 -65 20
-120 10 -55 19 -111 22 -125 2 -14 20 -115 38 -225 19 -110 37 -213 40 -230 2
-16 28 -165 56 -330 28 -165 52 -307 55 -315 2 -8 7 -33 10 -55 5 -39 8 -55
20 -115 2 -14 7 -43 10 -65 3 -23 7 -50 9 -60 2 -11 9 -53 16 -93 7 -41 16
-70 20 -65 5 4 23 35 40 68 18 33 45 83 60 110 66 120 138 254 200 370 82 154
112 206 117 201 3 -2 14 -38 25 -78 10 -40 26 -98 34 -128 9 -30 24 -86 34
-125 10 -38 39 -144 64 -235 24 -91 54 -201 66 -245 12 -44 28 -105 37 -135 8
-30 23 -86 33 -125 10 -38 33 -122 50 -185 46 -167 72 -263 75 -280 2 -8 23
-87 48 -175 43 -152 75 -272 82 -305 2 -8 15 -58 30 -110 15 -52 36 -126 45
-165 10 -38 32 -122 50 -185 17 -63 38 -137 46 -165 13 -47 51 -192 60 -225 4
-17 16 -61 39 -145 9 -33 30 -112 47 -175 17 -63 46 -171 65 -240 19 -69 52
-190 73 -270 22 -80 53 -194 70 -255 16 -60 43 -159 59 -220 17 -60 53 -195
81 -300 28 -104 53 -198 55 -208 2 -10 22 -82 44 -160 22 -78 56 -205 76 -282
20 -77 41 -152 47 -166 l10 -27 56 38 c70 46 235 129 319 159 53 20 61 26 57
44 -3 12 -7 33 -10 47 -2 14 -9 36 -14 50 -5 14 -21 70 -34 125 -13 55 -33
134 -44 175 -12 41 -23 86 -26 100 -2 14 -23 97 -46 185 -59 231 -151 588
-154 600 -1 6 -5 19 -9 30 -6 19 -9 32 -22 103 -3 15 -8 34 -11 42 -8 20 -72
268 -99 380 -2 8 -27 105 -55 215 -29 110 -54 207 -55 215 -5 20 -46 180 -84
320 -16 63 -32 126 -35 140 -4 22 -60 241 -71 280 -19 68 -118 461 -122 485
-3 17 -8 37 -13 45 -4 8 -11 33 -15 55 -5 22 -9 45 -11 50 -1 6 -14 55 -28
110 -14 55 -30 114 -36 130 -5 17 -11 41 -14 55 -4 26 -77 309 -101 395 -8 28
-16 61 -19 75 -7 37 -10 47 -66 265 -23 88 -44 171 -46 185 -3 14 -9 36 -14
50 -11 31 -40 145 -39 156 0 10 216 -636 434 -1301 76 -231 197 -600 270 -820
73 -220 196 -596 275 -835 79 -239 198 -601 266 -805 67 -203 175 -530 239
-725 64 -195 130 -393 146 -440 l30 -86 132 0 c73 0 155 -3 182 -7 368 -51
643 -165 908 -376 349 -279 591 -700 654 -1141 10 -72 10 -411 0 -475 -4 -27
-10 -66 -13 -85 -8 -53 -51 -208 -74 -270 -41 -107 -141 -296 -208 -390 -137
-193 -356 -382 -565 -490 -88 -45 -115 -65 -55 -41 13 5 52 18 88 29 253 76
509 160 780 255 166 59 293 104 325 117 11 4 38 14 60 23 136 51 391 151 428
167 12 5 60 25 107 44 134 54 336 140 445 189 55 24 123 55 150 67 94 42 160
72 215 97 86 40 725 358 825 411 118 63 243 130 280 152 17 10 53 30 80 45 44
23 294 165 303 171 2 1 -1 26 -7 56 -6 29 -13 64 -16 78 -10 56 -17 88 -30
145 -8 33 -35 157 -59 276 -25 118 -47 222 -50 230 -3 7 -7 28 -10 44 -4 23
-57 274 -100 478 -3 12 -21 96 -40 187 -19 91 -43 206 -54 255 -49 219 -71
322 -76 355 -3 19 -23 117 -45 217 -22 99 -43 195 -46 211 -3 17 -14 68 -24
114 -11 46 -22 97 -25 113 -2 17 -21 104 -41 195 -20 91 -40 188 -45 215 -6
28 -14 70 -20 95 -5 25 -12 56 -15 70 -10 51 -47 216 -56 255 -5 22 -11 56
-14 75 -3 19 -10 51 -16 71 -5 21 -23 102 -39 180 -16 79 -41 198 -55 264 -14
66 -37 174 -51 240 -44 206 -80 370 -83 383 -1 1 -1 8 -1 16 0 10 -45 -13
-122 -61 -68 -42 -148 -91 -178 -108 -30 -18 -116 -67 -190 -110 -252 -144
-624 -327 -795 -390 -38 -14 -79 -30 -90 -35 -37 -18 -296 -100 -379 -120
-131 -32 -250 -54 -361 -68 -77 -9 -392 -8 -470 1 -350 45 -728 277 -920 567
-85 128 -194 355 -235 489 -26 83 -59 200 -64 226 -4 17 -9 41 -12 55 -36 178
-49 304 -48 480 0 119 9 261 18 305 2 11 7 45 11 75 20 148 96 406 169 568 25
56 46 105 46 107 0 3 13 34 29 68 15 34 54 124 87 199 32 76 59 136 60 135 2
-1 -2 -23 -7 -47 -14 -59 -14 -59 -39 -180 -23 -114 -38 -200 -46 -270 -2 -25
-7 -54 -9 -66 -2 -11 -7 -45 -10 -75 -4 -30 -8 -67 -11 -84 -18 -128 -25 -546
-11 -710 10 -112 46 -355 57 -385 5 -14 18 -61 29 -105 23 -94 94 -267 153
-375 50 -92 167 -260 222 -318 118 -125 353 -259 502 -286 116 -21 215 -28
334 -23 150 7 245 21 375 53 661 162 1525 637 2705 1487 301 218 1055 782
1107 829 12 11 26 19 32 17 5 -2 57 -66 115 -143 l106 -138 -223 -171 c-273
-210 -696 -525 -960 -716 -146 -106 -196 -148 -193 -160 3 -9 8 -29 11 -46 2
-16 7 -39 9 -50 3 -11 28 -126 56 -255 28 -129 55 -251 60 -270 5 -19 14 -57
20 -85 17 -81 59 -273 80 -365 11 -47 21 -96 24 -110 3 -14 7 -36 11 -50 3
-14 7 -34 10 -45 2 -11 17 -81 34 -155 16 -74 41 -189 55 -255 15 -66 40 -178
56 -250 16 -71 47 -213 70 -315 22 -102 49 -225 60 -275 11 -49 26 -119 34
-155 16 -70 54 -242 61 -275 2 -11 11 -54 20 -95 9 -41 19 -84 21 -95 5 -22
10 -47 19 -85 3 -14 7 -34 10 -45 2 -11 27 -123 55 -250 43 -193 63 -289 95
-438 2 -10 6 -26 9 -35 3 -9 8 -30 11 -47 6 -37 5 -33 50 -230 20 -88 45 -203
56 -255 11 -52 24 -111 29 -130 4 -19 13 -59 19 -89 6 -30 13 -57 16 -59 7 -7
443 283 508 338 4 4 -1 52 -12 106 -11 54 -25 128 -31 164 -6 36 -12 70 -14
75 -2 6 -6 28 -10 50 -4 22 -14 74 -22 115 -22 115 -33 172 -38 210 -3 19 -7
44 -10 55 -2 11 -11 58 -20 105 -8 47 -17 96 -20 110 -14 76 -26 138 -30 165
-3 17 -15 74 -26 128 -11 54 -24 126 -30 160 -15 90 -19 113 -36 202 -9 44
-17 89 -19 100 -3 26 -52 282 -69 363 -7 34 -10 62 -6 62 4 0 69 -183 144
-407 75 -225 200 -595 277 -823 77 -228 163 -482 190 -565 27 -82 54 -154 58
-158 18 -18 608 446 1071 843 322 276 524 463 818 755 l272 272 111 -144 110
-144 -20 -27 c-29 -41 -392 -396 -601 -587 -698 -640 -1506 -1276 -2240 -1764
-230 -153 -276 -183 -450 -291 -47 -29 -101 -63 -120 -75 -43 -28 -366 -220
-435 -260 -478 -273 -1056 -575 -1435 -749 -238 -110 -277 -128 -362 -165 -27
-12 -67 -30 -91 -40 -24 -11 -92 -40 -152 -66 -61 -25 -124 -53 -142 -61 -17
-8 -78 -33 -135 -55 -57 -23 -121 -49 -143 -59 -22 -9 -107 -43 -190 -75 -82
-32 -188 -73 -235 -91 -118 -46 -295 -109 -420 -150 -58 -19 -114 -39 -125
-43 -48 -21 -560 -187 -650 -211 -29 -7 -324 -93 -433 -126 -29 -8 -62 -17
-74 -19 -12 -3 -35 -9 -52 -14 -42 -14 -474 -122 -616 -155 -63 -15 -151 -36
-195 -46 -93 -22 -338 -74 -395 -84 -38 -7 -132 -25 -160 -32 -14 -3 -86 -16
-160 -29 -74 -14 -145 -27 -156 -29 -12 -2 -39 -7 -60 -10 -22 -4 -61 -10 -89
-16 -55 -10 -111 -19 -165 -25 -19 -3 -51 -7 -70 -11 -19 -3 -44 -8 -55 -10
-11 -1 -38 -5 -60 -8 -39 -5 -96 -13 -145 -22 -14 -2 -63 -9 -110 -14 -81 -10
-102 -13 -215 -26 -27 -3 -57 -7 -65 -9 -8 -2 -49 -7 -90 -10 -41 -3 -86 -8
-100 -10 -14 -3 -50 -7 -80 -10 -30 -3 -71 -7 -90 -10 -19 -2 -75 -7 -125 -11
-49 -3 -103 -8 -120 -9 -149 -13 -261 -21 -430 -31 -66 -3 -122 -8 -125 -9
-15 -9 -599 -20 -1025 -19 -415 1 -718 10 -985 29 -96 7 -244 17 -285 20 -88
6 -251 20 -345 30 -19 3 -57 6 -85 9 -142 14 -182 18 -198 22 -10 2 -46 6 -80
9 -35 3 -74 7 -87 10 -14 3 -52 8 -85 11 -33 3 -89 10 -125 16 -79 12 -92 15
-150 22 -99 13 -116 16 -140 20 -14 3 -43 8 -65 11 -23 3 -52 7 -65 10 -13 3
-42 7 -65 11 -51 7 -192 32 -225 39 -14 3 -43 8 -64 11 -22 3 -43 7 -46 9 -4
2 -29 7 -56 10 -27 4 -110 20 -184 35 -74 16 -160 34 -190 40 -30 6 -73 15
-95 20 -105 24 -232 52 -252 56 -47 9 -650 163 -675 173 -15 5 -58 51 -100
106 -40 54 -127 167 -194 253 -66 87 -527 688 -1024 1337 -497 649 -1018 1329
-1157 1510 -139 182 -283 370 -321 419 -37 48 -87 114 -112 146 -25 32 -128
167 -230 300 -102 133 -210 274 -241 314 -30 39 -224 292 -430 561 -207 270
-517 675 -690 900 -173 226 -348 454 -389 508 -91 120 -211 276 -570 744 -352
459 -360 469 -360 481 0 5 11 17 24 26 14 8 205 154 425 323 1503 1157 1462
1127 1484 1113 92 -57 455 -226 697 -325 207 -84 597 -223 673 -240 10 -2 62
-18 115 -34 171 -53 565 -148 727 -175 61 -10 211 -36 230 -40 48 -9 141 -23
215 -31 30 -4 69 -8 85 -10 27 -3 113 -12 200 -21 37 -3 179 -13 305 -19 102
-6 513 -6 596 -1 28 2 100 7 160 10 60 4 125 8 144 10 123 13 168 18 190 21
14 2 45 7 70 10 49 7 223 33 255 39 33 7 199 38 215 41 200 40 451 109 725
200 111 37 326 119 440 168 1144 491 2202 1353 3014 2458 768 1045 1334 2276
1731 3766 28 105 53 200 55 210 5 26 32 142 61 263 14 58 29 125 34 150 5 25
18 88 30 140 11 52 23 111 26 130 3 19 7 42 10 50 3 8 16 76 30 150 13 74 26
146 29 160 2 13 7 40 10 60 3 20 8 47 10 60 3 14 7 45 10 70 4 25 10 68 15 95
6 28 12 67 14 87 3 21 8 53 11 70 3 18 7 47 10 63 3 17 7 50 10 75 3 25 7 56
10 70 2 14 7 52 11 85 3 33 8 68 9 77 2 9 6 48 10 85 3 37 8 84 11 103 3 19 7
53 9 75 8 81 17 175 20 202 4 35 12 124 21 233 4 47 8 101 10 120 2 19 6 100
9 180 4 80 9 151 11 159 8 24 18 462 18 796 1 285 -9 743 -19 880 -18 252 -17
242 -40 465 -20 185 -38 320 -60 450 -2 14 -7 43 -10 65 -4 22 -10 56 -15 75
-5 19 -12 55 -15 80 -4 24 -8 47 -10 50 -2 3 -24 87 -50 186 -25 98 -52 202
-60 229 -47 170 -109 389 -125 445 -36 125 -93 325 -100 355 -6 24 -40 151
-66 245 -6 24 -55 223 -59 240 -2 8 -12 53 -24 100 -17 71 -47 218 -65 320 -2
14 -9 52 -15 85 -6 33 -13 83 -16 110 -3 28 -8 66 -10 85 -18 118 -30 292 -30
425 0 99 13 324 20 335 2 3 6 24 9 46 45 297 174 583 358 790 188 212 420 369
733 496 96 39 250 93 295 103 8 2 42 11 75 20 144 40 292 68 420 80 39 4 71 8
73 10 7 7 384 1 447 -6z m-5395 -4085 l29 -41 -396 -304 c-218 -167 -405 -310
-414 -317 -16 -11 -25 -4 -78 64 -34 42 -59 80 -56 83 2 4 142 113 310 242
169 129 352 269 408 312 l102 79 32 -39 c18 -21 46 -57 63 -79z m398 -521 c45
-60 134 -175 197 -258 63 -82 160 -208 215 -280 55 -71 224 -292 376 -490 152
-198 333 -434 402 -525 138 -181 360 -470 635 -828 l179 -232 -7 -63 c-4 -34
-8 -69 -10 -77 -2 -8 -6 -53 -10 -100 -4 -47 -9 -87 -10 -90 -2 -3 -6 -48 -9
-100 -4 -52 -9 -106 -12 -120 -2 -14 -6 -43 -9 -65 -2 -22 -6 -60 -9 -85 -3
-25 -8 -79 -11 -120 -3 -41 -8 -82 -10 -90 -2 -8 -7 -50 -10 -93 -4 -43 -8
-86 -10 -96 -2 -9 -6 -48 -10 -86 -4 -39 -9 -81 -11 -95 -1 -14 -6 -63 -10
-110 -3 -47 -9 -91 -13 -97 -4 -8 -99 108 -241 293 -129 168 -262 341 -295
384 -33 43 -84 109 -112 147 -29 37 -108 140 -176 228 -67 88 -160 210 -207
270 -129 169 -621 810 -835 1090 -106 138 -307 401 -448 585 -142 184 -298
388 -348 453 -89 116 -91 119 -73 137 11 10 93 75 184 144 320 244 473 362
544 418 39 31 74 57 77 57 3 1 43 -47 87 -106z m2793 -525 c2 -24 8 -63 17
-121 l9 -57 -46 -34 c-25 -18 -152 -115 -281 -215 -129 -99 -238 -181 -241
-181 -8 0 -99 118 -99 128 0 5 100 84 221 178 122 93 262 201 313 241 96 75
105 81 107 61z m-1300 -415 c117 -153 258 -336 312 -407 71 -92 97 -134 91
-144 -5 -7 -30 -29 -55 -48 l-46 -34 -108 140 c-59 78 -199 261 -311 407 -113
146 -203 269 -202 274 2 6 99 87 105 89 1 0 98 -125 214 -277z m1394 -654 c12
-271 13 -380 5 -377 -15 5 -242 308 -238 318 3 10 221 179 226 175 1 -1 5 -53
7 -116z m-2974 -779 l311 -405 -27 -20 c-15 -11 -66 -50 -114 -87 -81 -63 -87
-66 -102 -50 -9 9 -121 154 -250 322 -128 168 -261 342 -296 388 -36 46 -63
88 -61 93 5 14 211 170 220 167 4 -2 148 -185 319 -408z m2482 257 c31 -41 57
-78 57 -83 0 -11 -95 -84 -107 -84 -9 1 -110 131 -118 153 -6 14 93 100 105
92 4 -2 32 -37 63 -78z m492 -544 c-8 -229 -12 -304 -17 -308 -2 -2 -55 63
-118 146 -87 115 -111 152 -102 161 15 15 235 186 241 187 2 1 0 -83 -4 -186z
m-3383 -441 c15 -20 37 -49 48 -63 l20 -26 -228 -175 c-125 -96 -477 -366
-782 -599 -707 -541 -902 -691 -1020 -782 -52 -41 -347 -266 -655 -502 -308
-236 -603 -462 -655 -502 -52 -40 -210 -161 -350 -268 -294 -224 -311 -238
-884 -678 -235 -181 -432 -325 -436 -320 -5 4 -29 34 -54 67 l-45 59 60 46
c34 25 125 96 204 156 79 61 214 164 300 230 86 66 221 170 300 230 210 162
728 559 1435 1100 344 263 661 506 705 540 87 67 886 680 1050 805 489 375
783 600 854 655 47 36 89 65 95 65 6 0 23 -17 38 -38z m1207 -314 c33 -45 60
-82 58 -83 -1 -1 -51 -39 -110 -84 -60 -45 -112 -81 -117 -79 -12 5 -120 145
-120 157 0 5 33 35 73 65 39 30 86 66 102 80 17 14 35 25 41 26 7 0 39 -37 73
-82z m-14859 -202 c14 -2 47 -7 73 -11 27 -4 59 -8 70 -11 12 -2 35 -5 50 -6
33 -3 36 -13 52 -173 3 -33 8 -67 10 -75 2 -8 7 -40 10 -70 4 -30 12 -93 19
-140 7 -47 9 -92 5 -101 -12 -24 -237 -192 -248 -185 -9 6 -417 535 -434 563
-5 7 42 50 130 118 l138 106 50 -5 c28 -3 61 -8 75 -10z m-1222 -112 c47 -8
107 -30 105 -38 -1 -5 -122 -100 -270 -214 -147 -113 -411 -315 -586 -449
-175 -134 -325 -247 -332 -250 -12 -4 -14 10 -10 81 10 195 95 380 252 546
172 183 378 290 643 334 27 5 145 -1 198 -10z m15484 -170 c205 -268 232 -299
275 -320 53 -27 165 -26 215 1 21 11 130 91 243 178 112 86 209 157 214 157 5
0 161 -199 348 -442 186 -243 402 -526 480 -628 316 -411 353 -460 349 -460
-3 0 -25 6 -48 14 -38 13 -112 29 -188 42 -74 12 -259 15 -360 5 -225 -23
-431 -93 -615 -210 -38 -24 -230 -166 -425 -316 -347 -265 -1192 -913 -1520
-1165 -91 -69 -205 -157 -255 -195 -105 -80 -176 -135 -300 -230 -49 -38 -223
-171 -385 -295 -162 -124 -392 -300 -510 -391 -118 -91 -420 -322 -670 -514
-250 -191 -597 -457 -770 -590 -173 -133 -407 -312 -520 -398 -113 -86 -234
-179 -270 -207 -36 -27 -171 -131 -300 -230 -129 -99 -287 -220 -350 -268 -63
-49 -234 -180 -380 -292 -302 -232 -341 -264 -428 -363 -192 -220 -314 -490
-349 -777 -4 -30 -7 -118 -8 -196 l0 -141 -30 9 c-16 5 -41 14 -55 20 -15 5
-77 78 -151 176 -70 92 -232 304 -360 472 -129 168 -248 323 -264 344 l-30 39
35 29 c19 15 177 137 350 269 173 133 327 253 342 267 62 58 88 176 55 253 -8
19 -71 108 -140 199 -69 91 -123 168 -119 171 4 4 113 87 242 186 129 99 386
295 570 436 184 142 492 378 684 525 571 437 579 444 604 489 31 57 39 129 19
186 -14 41 -156 237 -319 441 l-58 71 33 28 c17 15 75 61 127 100 170 130
1943 1489 2025 1552 44 34 269 206 500 383 231 177 448 343 481 369 34 27 102
78 150 116 49 37 222 169 385 295 163 125 415 318 560 429 145 111 370 283
499 382 129 99 238 181 242 181 4 0 71 -84 150 -186z m-15020 -355 c40 -52
137 -179 216 -282 79 -102 144 -190 145 -194 1 -8 -131 -113 -142 -113 -3 1
-28 31 -56 68 -27 36 -126 165 -218 285 -92 120 -167 223 -165 227 4 12 132
109 140 107 3 -1 39 -45 80 -98z m-716 -846 c120 -157 219 -289 218 -292 0 -3
-142 -115 -315 -248 l-314 -242 -257 262 c-142 144 -257 265 -258 268 0 3 69
58 153 122 83 63 240 183 347 266 107 83 198 151 201 151 3 0 104 -129 225
-287z m3013 184 c55 -72 631 -825 725 -947 52 -67 94 -122 211 -275 91 -119
147 -191 230 -300 90 -116 573 -748 824 -1075 107 -140 216 -282 241 -315 47
-61 246 -320 433 -565 155 -202 604 -787 651 -849 22 -29 86 -112 142 -185 55
-72 235 -306 399 -521 311 -406 334 -436 736 -960 135 -176 287 -374 338 -440
50 -66 137 -180 194 -253 56 -73 109 -143 117 -154 l14 -20 -39 19 c-22 11
-87 43 -145 72 -127 61 -213 108 -345 187 -114 68 -71 17 -554 649 -160 209
-322 421 -360 470 -38 50 -171 223 -295 385 -124 162 -301 394 -394 514 -92
120 -177 231 -189 245 l-23 26 5 -145 c2 -80 7 -212 10 -295 7 -188 13 -399
20 -675 3 -118 7 -242 10 -275 2 -33 7 -181 11 -330 4 -148 8 -288 9 -310 2
-22 4 -60 4 -85 1 -42 11 -59 151 -245 136 -180 279 -387 402 -580 l45 -71
-113 -87 c-62 -48 -117 -87 -122 -87 -6 0 -23 21 -38 48 -46 80 -242 370 -342
507 -676 928 -1645 1855 -2810 2689 -182 130 -646 438 -812 538 -334 203 -495
297 -650 381 -30 16 -104 57 -165 90 -260 143 -724 368 -1035 503 -107 47
-220 96 -251 110 -31 13 -59 24 -63 24 -3 0 -25 9 -49 19 -23 10 -126 52 -230
92 -103 40 -184 76 -180 80 5 3 152 117 328 251 295 226 1073 821 1225 938 36
27 148 114 250 191 102 78 223 172 270 208 47 36 256 196 465 356 209 160 448
344 530 407 83 64 152 117 155 117 3 0 29 -32 59 -72z m-3939 -734 c91 -93
206 -211 257 -263 l92 -95 -89 -67 c-49 -38 -93 -68 -98 -68 -8 0 -198 80
-289 121 -24 10 -45 19 -48 19 -4 0 -45 17 -92 37 l-85 37 6 57 c4 31 9 67 11
79 2 13 7 55 10 94 9 109 10 111 82 165 37 28 70 51 73 51 3 0 79 -75 170
-167z m18575 -189 c107 -27 277 -105 338 -155 l36 -29 -30 -108 c-16 -59 -36
-131 -44 -161 -8 -30 -16 -56 -18 -57 -2 -2 -19 1 -38 7 -38 11 -158 38 -204
45 -16 3 -88 6 -159 8 -101 2 -155 -2 -250 -20 -184 -34 -218 -45 -358 -114
-112 -56 -167 -92 -335 -221 -67 -52 -190 -147 -275 -211 -84 -65 -322 -247
-528 -406 -206 -158 -568 -436 -805 -617 -236 -181 -592 -453 -790 -605 -198
-152 -603 -462 -900 -690 -297 -227 -605 -464 -685 -525 -80 -61 -185 -142
-235 -180 -101 -77 -169 -129 -300 -230 -49 -38 -223 -171 -385 -295 -276
-211 -417 -320 -942 -723 -281 -216 -403 -349 -506 -554 -85 -167 -139 -392
-138 -572 1 -76 -1 -90 -14 -86 -8 2 -31 6 -50 9 -50 8 -189 35 -230 45 -19 5
-47 12 -62 15 -19 4 -29 15 -37 38 -47 151 -41 398 15 564 25 74 73 172 118
239 80 120 149 182 494 445 90 69 239 182 330 253 92 70 235 179 317 242 83
63 207 159 277 212 225 173 820 630 1308 1003 261 200 518 396 570 437 136
105 948 728 1120 859 142 108 408 312 1209 927 715 547 1097 840 1261 965 88
68 195 142 236 163 218 114 451 142 689 83z m-8298 -871 c66 -87 198 -258 292
-381 l171 -222 -58 -44 c-62 -48 -511 -393 -760 -584 -85 -64 -218 -166 -297
-227 -79 -60 -212 -163 -297 -227 -84 -65 -218 -168 -297 -228 -79 -61 -147
-109 -152 -108 -6 3 -94 115 -382 491 -28 38 -85 111 -124 162 -40 51 -73 98
-73 104 0 6 99 86 219 178 120 92 346 266 502 385 156 120 471 361 699 537
228 176 420 320 426 320 6 1 65 -70 131 -156z m8046 -63 c-4 -4 -386 -297
-848 -650 -462 -354 -964 -739 -1115 -855 -151 -116 -459 -353 -685 -525 -225
-173 -504 -386 -620 -475 -115 -88 -433 -331 -705 -540 -272 -209 -565 -433
-651 -500 -150 -114 -266 -203 -729 -558 -365 -279 -573 -439 -660 -506 -47
-36 -220 -169 -385 -295 -165 -126 -315 -242 -334 -257 -19 -16 -37 -27 -39
-25 -7 8 62 133 109 197 61 83 98 117 274 252 77 59 329 252 560 429 232 178
474 364 539 413 65 50 247 189 404 310 158 121 346 265 417 319 145 111 710
544 1265 970 392 301 527 404 715 548 114 87 819 628 1725 1323 323 248 434
327 500 358 117 56 303 103 263 67z m361 -133 c-14 -42 -33 -86 -42 -96 -10
-11 -251 -198 -537 -417 -286 -219 -722 -553 -970 -743 -247 -189 -488 -374
-535 -410 -47 -36 -112 -86 -145 -111 -165 -126 -249 -191 -470 -360 -132
-101 -267 -205 -300 -230 -86 -66 -1013 -777 -1585 -1215 -267 -204 -737 -565
-1045 -801 -824 -632 -1406 -1077 -1440 -1102 -22 -15 -42 -21 -74 -19 -42 2
-45 5 -47 32 -1 28 20 47 360 307 198 152 559 428 801 613 242 185 550 421
684 524 134 102 275 211 315 242 39 30 332 255 651 499 319 244 623 477 675
517 52 40 210 161 350 268 140 107 300 230 355 272 55 42 180 138 277 213 97
74 412 315 698 535 731 560 794 608 985 755 94 71 247 188 340 260 94 72 238
182 320 245 83 63 206 158 274 210 68 52 126 94 128 92 1 -2 -9 -38 -23 -80z
m-11194 -794 l35 -46 -30 -23 c-17 -12 -133 -102 -260 -199 l-230 -176 -28 33
c-52 61 -52 60 21 115 37 28 110 84 162 124 249 191 285 219 290 219 3 -1 21
-21 40 -47z m3566 -24 c40 -52 45 -64 33 -73 -8 -6 -159 -122 -335 -257 -175
-135 -571 -438 -879 -674 -308 -235 -576 -441 -596 -457 l-37 -28 -41 55 c-23
30 -44 61 -47 69 -3 9 105 98 326 267 769 589 704 539 1163 892 192 147 352
267 357 267 5 0 30 -28 56 -61z m-3191 -465 c116 -151 222 -292 238 -314 l27
-39 -186 -143 c-102 -79 -219 -169 -259 -200 l-73 -56 -50 66 c-28 37 -68 90
-89 117 -21 28 -104 136 -184 240 -80 105 -148 195 -152 202 -4 7 29 39 86 82
325 249 421 321 426 321 3 -1 101 -125 216 -276z m3416 170 c52 -66 52 -66 32
-83 -12 -9 -122 -93 -245 -188 -122 -94 -263 -202 -313 -240 -49 -38 -333
-255 -630 -483 -297 -228 -565 -433 -595 -457 l-55 -43 -22 27 c-13 16 -36 47
-53 69 l-29 41 107 82 c59 44 154 117 212 162 58 45 166 127 240 184 74 57
396 303 715 548 319 246 581 446 582 446 1 1 25 -29 54 -65z m6723 -489 c-35
-68 -87 -164 -114 -211 -28 -48 -50 -88 -50 -90 0 -12 -205 -342 -315 -509
-292 -440 -585 -803 -950 -1174 -471 -479 -910 -824 -1475 -1157 -174 -103
-540 -283 -715 -352 -222 -88 -318 -123 -445 -162 -58 -17 -116 -36 -130 -40
-36 -13 -242 -66 -330 -85 -160 -34 -256 -53 -290 -59 -19 -3 -57 -10 -85 -15
-53 -11 -105 -18 -195 -27 -47 -4 -31 3 100 46 163 53 304 103 357 126 17 8
34 14 38 14 7 0 120 47 295 122 132 57 460 220 600 298 52 29 115 64 140 77
25 14 124 73 220 131 997 600 2013 1474 2791 2397 194 231 393 488 562 728 27
37 50 67 52 67 2 0 -25 -56 -61 -125z m-9470 -554 c42 -55 76 -103 75 -108 0
-4 -116 -96 -257 -204 l-257 -195 -77 100 c-43 56 -78 103 -77 106 0 3 74 61
166 130 91 69 206 157 257 197 50 40 91 72 92 73 1 0 35 -45 78 -99z m764
-997 c89 -118 165 -220 168 -227 4 -11 -344 -288 -481 -384 l-31 -21 -170 221
c-93 122 -170 226 -171 232 -2 11 495 394 512 394 6 0 83 -97 173 -215z
m15158 -259 c110 -143 238 -309 284 -370 46 -60 105 -137 130 -170 25 -33 106
-139 180 -235 74 -96 155 -203 182 -237 259 -336 678 -886 676 -888 -2 -2 -84
-65 -183 -140 -99 -76 -283 -216 -408 -312 -125 -96 -232 -173 -237 -171 -5 2
-147 183 -316 403 -168 220 -383 501 -478 624 -94 122 -222 290 -284 371
l-112 148 15 58 c8 33 22 79 30 104 8 25 16 57 19 71 2 14 18 77 36 140 17 63
33 121 35 129 3 12 57 215 80 300 2 8 18 69 35 135 29 114 59 220 82 294 8 27
12 31 23 20 7 -8 102 -131 211 -274z m3975 -212 c151 -197 312 -407 358 -468
121 -158 327 -426 402 -524 35 -46 111 -145 168 -220 132 -173 993 -1295 1121
-1461 53 -69 144 -188 203 -265 150 -197 733 -958 977 -1275 504 -657 880
-1149 880 -1153 0 -4 -492 -383 -938 -723 l-106 -81 -21 26 c-12 14 -325 422
-695 906 -371 484 -788 1029 -927 1210 -139 182 -283 370 -321 419 -37 48 -87
114 -112 146 -25 32 -128 167 -230 300 -102 133 -210 274 -241 314 -30 39
-224 292 -430 561 -207 270 -508 663 -671 875 -718 937 -742 970 -732 979 5 5
77 60 159 122 151 114 243 185 650 499 121 93 223 169 226 170 4 0 130 -161
280 -357z m-23415 41 c19 -15 34 -30 34 -33 0 -4 -117 -97 -261 -207 -143
-109 -374 -286 -512 -392 -139 -107 -264 -203 -279 -213 l-26 -19 -31 39 -31
39 134 104 c74 57 284 218 467 358 183 140 360 276 393 302 34 26 65 48 69 48
5 0 24 -12 43 -26z m343 -318 c47 -47 83 -87 80 -89 -5 -4 4 2 -604 -463 -258
-198 -486 -372 -506 -387 l-36 -27 -81 104 c-44 57 -87 115 -97 129 l-16 25
243 186 c134 103 371 284 527 404 157 119 296 227 310 238 l26 22 35 -28 c19
-16 73 -67 119 -114z m-3779 9 c191 -12 236 -15 285 -20 65 -6 160 -13 265
-20 47 -3 112 -8 145 -10 33 -3 128 -10 210 -15 83 -6 170 -13 195 -15 136
-12 270 -22 321 -24 33 -1 42 -9 127 -121 50 -65 88 -121 84 -123 -4 -3 -34
-3 -67 -2 -33 2 -132 6 -220 9 -207 8 -806 35 -960 42 -131 7 -208 10 -272 13
-42 1 -42 2 -152 145 -61 80 -111 147 -111 150 0 4 12 4 28 2 15 -3 70 -8 122
-11z m-607 -169 l85 -110 -42 -32 c-22 -17 -212 -162 -421 -323 -209 -160
-499 -382 -644 -494 -146 -111 -317 -242 -382 -292 -64 -49 -219 -168 -343
-263 l-226 -173 92 -120 c50 -66 97 -124 103 -129 7 -6 36 10 85 48 41 32 257
197 480 368 223 171 540 414 705 540 165 127 410 315 545 418 l245 188 30 -35
c16 -19 45 -55 63 -80 l32 -46 -42 -34 c-24 -18 -122 -94 -218 -167 -96 -74
-269 -206 -385 -295 -1441 -1104 -1405 -1076 -1405 -1082 0 -2 48 -67 108
-144 173 -226 294 -384 297 -387 1 -2 88 62 191 141 279 213 1525 1168 1702
1305 84 64 156 118 161 120 4 1 66 -73 136 -165 177 -231 370 -482 493 -642
56 -73 101 -135 100 -136 -2 -1 -91 -69 -198 -151 -107 -83 -242 -186 -300
-230 -190 -145 -1484 -1137 -1518 -1163 -17 -14 -30 -32 -27 -38 2 -7 30 -46
61 -88 37 -49 61 -72 68 -67 66 50 411 313 506 386 36 28 200 154 365 280 165
126 365 279 445 341 543 417 712 546 724 551 7 3 31 -19 56 -53 24 -32 77
-102 117 -155 41 -53 72 -101 69 -106 -3 -5 -47 -41 -98 -80 -51 -38 -136
-103 -188 -143 -52 -40 -228 -175 -390 -299 -162 -124 -394 -302 -515 -395
-121 -93 -355 -272 -520 -398 -165 -126 -307 -237 -316 -246 -16 -15 -4 -32
153 -236 93 -121 223 -291 289 -378 84 -109 124 -155 132 -149 7 5 91 69 187
143 162 123 920 704 1070 819 36 27 171 131 300 230 129 99 288 221 353 271
65 50 124 92 132 93 7 0 66 -68 130 -152 99 -129 115 -156 104 -167 -14 -13
-1984 -1524 -2022 -1550 -24 -17 -80 61 482 -670 215 -280 424 -553 464 -604
39 -52 89 -116 110 -143 l37 -48 118 90 c156 120 238 183 332 255 43 33 216
166 385 295 169 129 377 289 463 355 587 451 753 576 761 570 16 -9 164 -207
165 -220 1 -12 -43 -47 -399 -320 -86 -66 -239 -183 -339 -260 -528 -406
-1528 -1170 -1535 -1173 -4 -1 -187 232 -407 519 -219 287 -424 553 -455 593
-30 39 -224 292 -430 561 -368 481 -1009 1317 -1138 1485 -62 81 -490 639
-1146 1495 -164 215 -326 426 -360 470 -34 44 -94 123 -134 175 l-73 95 34 27
c36 29 673 518 858 659 63 48 403 308 755 578 352 270 643 487 647 483 4 -4
45 -56 91 -116z m4714 -165 l92 -99 -227 -173 c-125 -96 -393 -301 -596 -456
-202 -156 -371 -283 -375 -283 -6 1 -137 168 -154 196 -5 9 27 39 109 101 64
48 180 138 259 198 79 61 214 164 300 230 86 66 234 180 328 252 95 73 172
133 172 133 0 0 42 -44 92 -99z m17665 -231 c106 -140 373 -489 593 -775 219
-286 464 -605 544 -710 80 -104 192 -250 249 -324 57 -74 99 -138 95 -142 -10
-10 -148 -92 -278 -167 -432 -246 -893 -444 -1160 -498 -11 -2 -31 -6 -45 -9
-14 -3 -36 -8 -50 -11 -49 -10 -169 -20 -228 -18 -135 4 -228 29 -309 84 -131
88 -168 149 -191 320 -16 122 2 424 34 580 2 8 6 35 10 60 3 25 8 47 9 50 2 3
6 26 10 50 14 96 123 539 182 740 24 85 46 164 49 174 20 102 274 870 284 859
4 -4 95 -123 202 -263z m6482 204 c146 -22 160 -25 236 -45 456 -123 869 -433
1182 -889 194 -282 355 -599 447 -876 11 -33 22 -71 25 -85 2 -13 12 -55 21
-94 9 -38 19 -85 21 -105 2 -19 7 -46 10 -60 11 -46 13 -434 3 -494 -5 -32
-11 -71 -13 -85 -6 -49 -28 -156 -33 -164 -2 -4 -73 82 -158 192 l-153 200 -2
118 c-1 117 -4 165 -13 213 -3 14 -8 43 -12 65 -33 179 -119 412 -226 611 -56
106 -53 102 -103 97 -136 -16 -359 142 -537 381 -116 154 -213 367 -218 477
-2 38 -303 150 -466 174 -67 10 -71 13 -143 108 -38 51 -102 134 -141 185
l-73 93 132 -2 c73 -1 169 -8 214 -15z m-26297 -397 c89 -116 240 -315 337
-441 97 -126 176 -232 176 -235 0 -7 -800 -915 -809 -918 -6 -2 -1043 1349
-1049 1366 -3 8 60 34 188 79 107 37 315 114 345 127 17 7 64 24 105 39 41 14
176 64 300 110 124 47 230 85 235 85 6 0 83 -95 172 -212z m2907 -451 c42 -54
76 -102 74 -106 -3 -7 -114 -93 -418 -326 -58 -44 -148 -113 -200 -153 -52
-40 -135 -104 -185 -142 -49 -38 -155 -119 -235 -180 -80 -61 -157 -119 -172
-130 l-27 -19 -90 117 c-49 64 -88 120 -86 124 3 3 114 90 247 192 134 103
410 315 613 471 344 265 371 283 386 268 9 -9 51 -61 93 -116z m-2108 -661
c-13 -22 -36 -62 -51 -90 -16 -27 -47 -84 -70 -125 -24 -41 -53 -93 -65 -115
-12 -22 -61 -110 -107 -195 -47 -85 -98 -176 -114 -203 -16 -26 -29 -49 -29
-52 0 -2 -24 -46 -53 -97 -29 -51 -70 -124 -91 -161 -21 -38 -42 -65 -46 -60
-5 4 -36 44 -69 87 -52 69 -59 82 -49 100 6 12 30 55 53 96 71 125 83 147 121
217 21 37 67 120 102 183 36 63 79 140 95 170 16 30 38 69 47 85 25 42 54 94
117 210 30 55 64 115 75 133 l20 33 69 -88 68 -88 -23 -40z m-6032 -329 c47
-62 86 -116 86 -119 0 -5 -283 -224 -572 -444 l-57 -44 84 -109 c47 -61 91
-119 97 -130 7 -11 15 -20 19 -20 3 0 71 51 151 113 81 61 222 170 314 241
l167 129 34 -39 c18 -21 46 -58 63 -81 l30 -41 -137 -106 c-76 -58 -212 -163
-303 -232 -91 -69 -171 -132 -179 -139 -11 -11 -1 -30 66 -117 44 -56 135
-175 203 -263 67 -88 124 -162 125 -163 2 -2 109 77 237 175 128 99 270 208
316 243 48 37 87 59 92 54 4 -5 58 -74 119 -154 160 -209 258 -337 440 -574
88 -115 160 -210 158 -211 -4 -3 -211 -160 -307 -234 -52 -40 -146 -111 -207
-158 -62 -47 -113 -89 -113 -93 0 -13 122 -165 130 -163 5 2 147 109 316 238
169 130 311 234 315 233 9 -4 239 -301 239 -310 0 -3 -140 -113 -310 -243
-171 -131 -312 -240 -314 -244 -2 -3 64 -94 148 -202 83 -108 205 -268 271
-355 66 -86 129 -168 140 -181 l20 -24 210 161 c116 89 256 197 312 241 56 43
105 79 110 79 7 -1 234 -292 241 -310 1 -4 -137 -114 -308 -244 -170 -131
-312 -241 -314 -245 -3 -4 37 -61 87 -127 51 -65 130 -168 177 -229 610 -796
832 -1085 838 -1088 4 -3 147 103 317 234 171 131 313 239 317 239 9 0 170
-210 172 -225 0 -6 -194 -162 -433 -345 l-434 -333 -21 29 c-17 24 -335 438
-665 869 -72 94 -426 556 -641 836 -183 239 -556 726 -785 1024 -324 423 -424
553 -530 691 -55 73 -119 156 -141 185 -48 62 -825 1076 -865 1129 -15 19
-131 170 -258 335 l-231 300 28 25 c16 14 167 131 336 260 169 129 353 270
409 313 55 42 102 77 103 77 1 0 40 -51 88 -114z m-1226 -985 c34 -44 62 -85
62 -89 0 -5 -140 -116 -310 -247 -205 -157 -307 -242 -302 -249 5 -6 46 -60
92 -121 46 -60 87 -114 91 -119 5 -5 40 15 81 46 77 59 263 201 440 336 58 45
110 82 115 82 4 -1 34 -35 67 -77 48 -62 56 -77 45 -88 -13 -11 -214 -166
-506 -389 -57 -43 -103 -81 -103 -85 0 -5 381 -505 399 -524 5 -5 150 99 322
231 l313 239 36 -46 c150 -191 685 -895 684 -900 0 -6 -251 -200 -506 -393
-60 -45 -108 -85 -108 -90 0 -5 27 -45 61 -89 38 -50 65 -77 72 -72 7 4 146
110 309 235 164 125 302 228 307 228 10 0 227 -279 237 -303 3 -8 -17 -30 -48
-53 -358 -270 -568 -437 -560 -448 33 -41 449 -588 502 -658 36 -48 70 -85 76
-83 6 2 80 57 165 122 323 249 448 343 457 343 11 0 235 -290 236 -306 1 -7
-137 -118 -307 -249 -200 -153 -305 -240 -300 -248 8 -13 113 -152 313 -412
25 -33 106 -139 180 -235 74 -96 155 -202 180 -235 25 -33 129 -168 230 -300
101 -132 187 -244 191 -249 4 -4 108 69 231 163 122 94 262 201 309 237 48 37
90 66 94 66 4 0 46 -52 94 -114 l88 -113 -86 -67 c-47 -36 -151 -116 -231
-177 -80 -61 -236 -181 -347 -266 -110 -85 -205 -155 -210 -155 -5 0 -78 89
-161 198 -519 676 -638 830 -727 947 -54 72 -120 158 -147 192 -26 34 -145
189 -264 345 -321 418 -533 694 -1159 1511 -33 43 -116 152 -185 242 -449 586
-1210 1580 -1343 1752 -87 113 -157 206 -155 207 5 4 347 265 413 316 33 26
150 115 260 199 l199 153 26 -30 c14 -16 53 -66 88 -111z m8361 -56 c76 -102
79 -106 70 -143 -5 -20 -11 -53 -14 -72 -3 -19 -12 -66 -20 -105 -8 -38 -17
-83 -20 -100 -17 -92 -25 -133 -30 -155 -3 -14 -7 -38 -10 -55 -12 -71 -47
-255 -60 -315 -8 -36 -17 -85 -20 -110 -4 -24 -8 -47 -10 -50 -2 -3 -6 -23
-10 -45 -4 -22 -8 -44 -9 -50 -2 -5 -6 -32 -10 -60 -5 -27 -15 -79 -23 -115
-8 -35 -16 -79 -19 -97 -2 -18 -8 -52 -13 -75 -14 -60 -23 -111 -24 -125 0 -7
-3 -13 -6 -13 -6 1 -197 248 -214 276 -4 7 0 40 9 73 8 34 17 69 19 78 2 10
31 135 65 278 34 143 64 271 66 285 3 14 10 43 16 65 5 22 12 47 13 55 35 156
48 209 66 280 11 47 22 92 24 100 2 8 13 56 25 105 11 50 25 114 32 143 6 28
15 52 19 52 5 0 44 -47 88 -105z m19341 -606 c0 -10 9 -57 21 -106 12 -48 23
-99 25 -113 3 -14 7 -31 10 -39 5 -15 39 -166 47 -211 3 -14 8 -36 12 -50 6
-23 -1 -29 -72 -71 -190 -111 -429 -205 -648 -253 -60 -14 -128 -27 -150 -31
-23 -3 -52 -8 -65 -10 -38 -8 -227 -20 -305 -20 -181 1 -350 22 -525 65 -47
11 -96 23 -110 26 -53 11 -291 106 -387 153 -113 56 -305 168 -343 200 -23 19
-20 19 40 -5 36 -14 74 -30 85 -35 30 -13 166 -60 200 -69 17 -5 79 -22 140
-39 60 -17 143 -37 185 -46 76 -15 96 -18 185 -32 105 -15 470 -8 526 11 8 3
28 7 44 10 161 24 445 139 683 275 65 37 61 37 -93 -14 -75 -24 -104 -32 -254
-70 -63 -15 -147 -31 -268 -49 -23 -4 -57 -9 -75 -12 -53 -8 -403 -16 -396 -8
4 4 21 8 39 10 17 2 77 15 132 29 56 15 110 28 120 30 70 16 377 134 587 227
120 53 489 239 550 276 33 20 36 21 48 5 6 -9 12 -25 12 -34z m-28966 -276
l86 -111 -325 -248 c-287 -220 -323 -250 -312 -266 56 -78 183 -238 188 -238
7 0 106 74 491 370 l157 120 62 -82 63 -82 -28 -20 c-15 -12 -92 -70 -171
-131 -79 -60 -211 -162 -294 -225 -83 -63 -149 -120 -146 -127 11 -31 400
-523 410 -519 6 2 149 109 316 238 168 129 310 237 316 241 6 4 46 -40 96
-106 47 -61 111 -146 143 -187 32 -41 123 -161 203 -265 80 -105 173 -225 206
-268 33 -43 66 -86 73 -96 12 -17 -16 -41 -307 -262 -176 -134 -320 -248 -320
-253 -1 -5 27 -46 61 -91 l62 -82 75 59 c465 360 575 440 585 426 6 -8 61 -79
121 -158 61 -78 108 -145 106 -149 -4 -6 -172 -137 -446 -346 -87 -66 -166
-127 -176 -135 -19 -14 -6 -33 268 -392 158 -207 292 -377 296 -377 4 -1 150
108 323 242 173 133 318 243 322 244 8 2 242 -302 242 -314 0 -4 -144 -118
-320 -252 -176 -134 -320 -245 -320 -247 0 -4 53 -74 305 -400 38 -51 123
-161 187 -245 65 -85 191 -248 279 -364 89 -115 200 -261 246 -322 47 -62 89
-113 93 -113 4 0 43 28 87 63 45 34 123 94 174 133 52 40 144 110 204 156 61
46 126 96 147 111 l36 28 90 -117 90 -117 -402 -309 c-425 -327 -474 -363
-480 -357 -4 4 -475 619 -812 1059 -318 416 -869 1134 -943 1230 -36 47 -248
324 -471 615 -327 427 -1871 2442 -1900 2480 -5 6 132 117 333 272 188 144
383 294 432 332 50 39 95 69 102 68 6 -1 50 -52 97 -114z m12112 -965 c102
-133 119 -160 136 -222 58 -211 152 -378 308 -549 64 -70 246 -228 346 -301
60 -43 98 -88 259 -297 104 -136 191 -252 193 -258 5 -15 -151 41 -258 92
-183 87 -377 219 -577 391 -233 201 -387 404 -492 651 -35 81 -81 229 -95 309
-3 16 -10 52 -16 80 -13 67 -19 126 -26 276 l-7 125 57 -73 c31 -40 108 -140
172 -224z m-13374 25 c46 -60 87 -113 91 -119 4 -7 -115 -104 -299 -245 -168
-129 -312 -239 -320 -246 -13 -10 -6 -24 52 -100 109 -141 127 -163 136 -163
8 0 231 168 581 439 31 24 59 42 60 40 96 -124 117 -153 115 -160 -2 -4 -142
-114 -313 -244 -170 -130 -311 -241 -313 -246 -2 -5 63 -95 145 -201 81 -106
171 -223 198 -260 28 -37 54 -67 59 -68 11 0 75 47 399 297 131 101 242 181
246 178 5 -2 66 -80 137 -172 70 -93 149 -195 174 -228 25 -33 106 -139 180
-235 74 -96 156 -204 184 -239 l49 -65 -29 -22 c-16 -12 -159 -122 -319 -244
-159 -123 -291 -223 -292 -224 -3 -3 120 -161 128 -164 5 -2 148 104 319 235
171 131 315 239 319 241 8 3 51 -52 218 -272 l32 -42 -306 -234 c-169 -129
-313 -240 -321 -246 -13 -9 30 -69 249 -355 145 -189 275 -359 288 -377 13
-18 29 -32 35 -30 7 2 151 109 320 238 168 129 310 236 315 238 4 1 62 -69
128 -156 l121 -158 -319 -244 c-176 -134 -318 -247 -317 -251 3 -8 323 -427
852 -1116 136 -178 251 -323 254 -323 4 0 148 108 321 240 173 132 317 240
320 240 9 -1 171 -217 171 -228 0 -8 -740 -583 -836 -649 l-33 -23 -114 148
c-62 81 -185 241 -273 356 -87 114 -191 249 -230 300 -39 50 -158 206 -266
346 -215 281 -677 885 -742 969 -22 29 -95 124 -161 210 -247 324 -504 658
-620 810 -117 151 -529 688 -707 921 -48 63 -183 239 -299 390 -116 151 -249
326 -297 389 -48 62 -114 148 -147 191 -33 43 -85 111 -115 150 -30 40 -80
105 -112 145 l-56 72 141 109 c138 105 195 149 557 428 96 74 176 135 177 136
1 0 39 -48 85 -107z m-1237 -972 c48 -62 83 -117 78 -121 -4 -4 -134 -103
-288 -220 -154 -118 -309 -236 -345 -264 -36 -28 -130 -100 -210 -161 -710
-543 -847 -649 -862 -663 -16 -16 -12 -24 78 -142 53 -69 97 -127 99 -129 2
-2 62 41 132 95 70 54 290 222 488 374 198 152 526 403 728 558 203 156 374
285 381 288 12 5 127 -134 125 -152 0 -5 -239 -191 -531 -414 -291 -223 -556
-425 -588 -450 -32 -25 -99 -76 -150 -115 -320 -244 -451 -349 -447 -359 5
-13 397 -526 402 -526 3 0 189 142 405 309 47 36 247 189 445 341 198 152 476
364 617 473 142 108 261 197 265 197 4 0 118 -145 253 -321 135 -176 296 -386
358 -467 61 -80 112 -148 112 -151 0 -3 -53 -46 -118 -95 -64 -50 -211 -162
-327 -251 -115 -88 -433 -331 -705 -540 -272 -208 -514 -394 -537 -412 l-43
-34 62 -80 c34 -44 65 -82 68 -84 3 -2 149 107 325 242 176 135 438 336 583
446 145 111 388 298 540 414 152 117 282 213 287 213 10 -1 249 -310 243 -315
-2 -1 -176 -135 -388 -297 -212 -162 -574 -439 -805 -616 -231 -177 -446 -342
-478 -367 l-57 -46 27 -39 c25 -34 132 -174 340 -445 67 -87 204 -266 209
-274 3 -3 166 121 779 591 171 131 378 290 460 353 83 63 229 175 325 249 96
74 175 134 176 133 0 -1 54 -71 118 -155 65 -84 116 -159 113 -166 -3 -6 -65
-58 -138 -114 -74 -56 -201 -154 -284 -217 -82 -63 -226 -173 -320 -245 -93
-71 -227 -174 -297 -227 -70 -54 -251 -192 -402 -308 -151 -115 -275 -213
-276 -217 0 -4 165 -222 367 -485 563 -735 646 -844 692 -905 26 -35 48 -55
55 -51 10 7 145 110 1249 955 257 197 471 358 475 358 7 0 74 -83 155 -191
l27 -37 -382 -293 c-211 -161 -492 -377 -624 -479 -699 -536 -947 -726 -959
-732 -12 -7 -63 56 -385 477 -25 33 -77 101 -115 150 -38 50 -166 216 -284
370 -289 378 -444 580 -797 1040 -311 406 -362 472 -505 659 -47 62 -329 429
-626 817 -297 387 -580 756 -629 821 -109 142 -301 393 -587 765 -119 156
-217 286 -217 290 1 5 89 76 198 158 280 214 362 277 777 595 204 156 415 318
470 360 55 42 138 105 183 141 276 212 338 258 344 256 3 -1 45 -53 93 -116z
m-2174 -2136 l114 -150 -12 -65 c-7 -36 -19 -101 -28 -145 -8 -44 -17 -91 -20
-105 -3 -14 -10 -50 -15 -80 -5 -30 -16 -89 -25 -130 -8 -41 -18 -90 -20 -109
-2 -18 -7 -41 -9 -50 -5 -15 -8 -32 -21 -106 -3 -16 -17 -88 -31 -160 -42
-219 -43 -200 17 -279 l53 -69 38 119 c63 195 94 293 128 404 18 58 38 123 45
145 8 22 28 87 45 145 17 58 39 129 49 158 l18 53 235 -308 c130 -169 267
-348 305 -398 569 -740 537 -696 517 -715 -11 -10 -154 -143 -319 -295 -165
-152 -300 -282 -300 -290 0 -7 31 -51 68 -99 l68 -87 82 64 c181 142 608 467
612 467 11 0 335 -434 328 -440 -4 -4 -78 -49 -163 -99 -402 -239 -580 -347
-580 -352 0 -3 31 -46 68 -95 38 -49 108 -141 156 -204 49 -63 92 -119 97
-124 4 -5 43 1 89 13 45 13 90 24 99 26 9 2 90 24 181 48 267 74 542 147 550
147 7 0 190 -235 190 -244 0 -5 -37 -13 -100 -21 -25 -3 -54 -7 -65 -9 -11 -2
-41 -6 -66 -10 -49 -7 -62 -9 -154 -25 -33 -6 -80 -13 -104 -16 -23 -3 -55 -7
-70 -10 -82 -14 -206 -33 -256 -40 -104 -14 -131 -18 -147 -24 -14 -5 23 -59
190 -276 378 -495 375 -490 402 -491 14 0 68 -4 121 -8 53 -3 127 -8 165 -11
38 -2 96 -7 129 -10 33 -2 96 -7 140 -10 44 -3 105 -8 135 -10 30 -3 89 -7
130 -10 41 -3 100 -8 130 -10 30 -3 86 -7 124 -10 38 -3 71 -6 72 -8 1 -1 54
-69 118 -152 114 -147 125 -172 71 -160 -19 5 -80 10 -235 20 -41 3 -113 8
-160 12 -47 3 -96 7 -110 8 -101 7 -232 17 -270 20 -25 2 -81 7 -125 10 -44 3
-109 8 -145 10 -36 3 -92 7 -125 9 -33 3 -100 8 -150 11 -49 3 -115 8 -145 11
l-55 6 -211 276 c-117 152 -295 385 -396 517 -101 132 -244 319 -318 415 -74
96 -179 234 -235 306 -55 73 -129 169 -164 215 -36 46 -108 140 -160 209 -111
145 -600 782 -826 1076 -85 111 -158 209 -161 218 -3 9 1 49 10 89 15 71 44
218 52 267 4 26 16 88 19 105 2 6 10 51 19 100 9 50 23 119 31 155 8 36 17 81
20 100 7 43 22 121 79 420 25 129 48 252 52 273 3 21 10 35 14 30 4 -4 58 -75
121 -158z m-29 -2676 c-4 -4 -394 -297 -867 -652 -473 -355 -922 -694 -997
-752 -76 -58 -138 -102 -138 -97 0 5 7 29 15 52 18 51 34 140 42 235 3 39 6
70 7 71 0 0 51 39 111 86 61 46 227 174 370 283 143 110 369 283 502 385 133
102 312 239 398 305 86 66 211 162 277 213 l120 92 83 -107 c46 -60 80 -111
77 -114z m363 -461 l187 -243 -34 -27 c-18 -15 -249 -192 -513 -394 -264 -202
-598 -458 -742 -568 -143 -111 -330 -254 -415 -318 -84 -65 -322 -247 -528
-406 -206 -158 -604 -463 -885 -678 -280 -215 -636 -487 -790 -605 -824 -632
-1383 -1060 -1570 -1204 -115 -89 -259 -199 -320 -245 -60 -46 -139 -107 -175
-134 -36 -28 -200 -154 -365 -280 -165 -127 -394 -302 -510 -391 -115 -88
-406 -311 -645 -494 -239 -183 -439 -338 -445 -343 -38 -38 326 59 585 155
165 62 624 280 808 385 41 23 75 42 77 42 2 0 49 27 105 60 56 33 103 60 106
60 5 0 276 168 402 249 115 74 435 293 527 361 146 107 404 302 700 530 176
135 383 294 460 353 77 59 250 191 385 295 318 244 625 479 1100 843 212 162
529 405 705 540 276 212 577 442 995 763 238 183 901 691 983 754 49 37 143
109 209 160 66 50 123 92 126 92 4 -1 55 -64 114 -142 l106 -141 -46 -37 c-26
-20 -193 -148 -372 -285 -179 -137 -363 -278 -410 -314 -47 -36 -220 -169
-385 -295 -165 -127 -394 -302 -510 -391 -115 -88 -433 -331 -705 -540 -272
-209 -565 -433 -651 -500 -86 -66 -251 -192 -365 -279 -115 -88 -290 -222
-389 -298 -99 -76 -263 -202 -365 -279 -102 -78 -223 -172 -270 -208 -177
-137 -822 -630 -975 -746 -533 -403 -1073 -749 -1620 -1037 -240 -126 -703
-338 -738 -338 -7 0 -17 -4 -22 -9 -29 -27 -436 -146 -565 -166 -25 -4 -58 -9
-75 -12 -94 -16 -276 -9 -365 15 -93 24 -205 140 -239 247 -71 226 120 654
521 1170 485 622 1162 1266 2018 1921 129 99 300 230 380 291 79 62 148 109
152 107 4 -3 24 -7 45 -9 21 -3 54 -8 73 -11 19 -3 79 -5 132 -5 54 -1 100 -4
103 -9 2 -4 -120 -105 -273 -223 -868 -675 -1192 -949 -1605 -1357 -481 -474
-789 -853 -997 -1225 -83 -149 -177 -370 -168 -396 2 -6 34 36 70 93 128 198
288 386 598 702 539 549 1181 1105 1905 1651 332 250 689 520 982 742 111 84
215 158 230 164 15 6 37 15 48 19 114 44 366 165 417 201 14 11 29 19 32 19 4
0 19 8 34 19 15 10 65 43 112 74 282 186 578 466 775 731 48 65 99 107 502
416 246 189 527 405 623 480 374 291 1103 862 1260 988 91 72 166 131 167 132
1 0 86 -109 188 -242z"/>
<path d="M41920 38167 c-3 -3 -37 -7 -75 -8 -131 -5 -322 -49 -474 -110 -365
-148 -669 -431 -847 -789 -82 -165 -104 -232 -154 -470 -15 -67 -21 -368 -10
-430 4 -25 11 -70 14 -100 19 -159 111 -411 210 -574 134 -221 349 -435 571
-565 148 -88 343 -164 475 -187 14 -2 45 -9 70 -14 84 -17 135 -21 300 -20
164 1 193 3 247 14 15 3 44 8 63 11 19 3 43 8 52 11 9 3 27 7 40 9 70 14 228
75 338 132 483 248 802 708 875 1263 5 37 6 351 1 382 -4 26 -13 81 -23 138
-12 70 -64 240 -94 308 -18 41 -58 122 -93 187 -68 128 -245 334 -380 444
-145 117 -330 222 -486 275 -86 29 -263 72 -330 80 -77 9 -285 18 -290 13z
m320 -411 c261 -61 447 -162 626 -341 113 -112 186 -215 250 -349 85 -181 117
-317 118 -511 1 -194 -14 -290 -74 -455 -141 -386 -460 -674 -868 -781 -105
-28 -169 -34 -337 -32 -133 1 -164 5 -270 32 -360 94 -658 337 -821 671 -55
113 -95 240 -111 350 -9 66 -10 295 -1 365 40 324 242 652 521 849 108 77 316
172 418 191 13 3 47 9 74 15 28 5 59 11 70 14 57 10 335 -2 405 -18z"/>
<path d="M41879 37356 c-2 -2 -22 -7 -44 -10 -249 -40 -490 -228 -599 -469
-55 -122 -71 -203 -70 -362 1 -122 5 -150 27 -220 68 -208 214 -391 388 -488
l47 -25 20 56 c73 205 501 1506 497 1510 -6 6 -260 13 -266 8z"/>
<path d="M42293 37123 c-210 -625 -463 -1386 -463 -1396 0 -16 38 -20 170 -20
398 1 722 274 805 678 13 59 11 231 -2 299 -29 157 -107 307 -218 421 -68 70
-199 165 -228 165 -9 0 -31 -50 -64 -147z"/>
<path d="M43756 37255 c73 -205 94 -279 114 -415 7 -41 13 -86 16 -100 18
-116 12 -382 -12 -505 -2 -11 -9 -47 -15 -80 -36 -203 -142 -466 -267 -660
-145 -227 -369 -445 -602 -588 -95 -58 -248 -137 -265 -137 -4 0 -21 -6 -38
-14 -80 -37 -300 -98 -397 -111 -121 -16 -185 -20 -300 -20 -155 0 -296 14
-410 41 -456 109 -829 346 -1108 706 -67 87 -109 153 -178 280 -30 57 -53 94
-50 83 66 -268 137 -536 205 -775 23 -80 46 -163 52 -185 6 -22 15 -51 20 -65
4 -14 24 -83 43 -155 19 -71 45 -166 57 -210 18 -69 38 -146 55 -220 3 -11 7
-31 10 -45 3 -14 9 -38 14 -55 8 -25 39 -200 55 -305 24 -164 26 -181 55 -430
5 -47 12 -125 16 -175 l6 -89 71 -66 c157 -145 296 -380 392 -663 33 -99 70
-244 81 -316 3 -20 7 -47 10 -61 19 -104 26 -371 11 -485 -42 -339 -172 -600
-422 -851 -66 -67 -133 -131 -148 -142 -29 -22 -31 -28 -43 -152 -3 -36 -8
-76 -9 -90 -2 -14 -6 -54 -9 -90 -4 -36 -9 -78 -11 -95 -13 -89 -18 -136 -16
-148 0 -4 46 46 101 112 267 319 550 519 833 591 249 63 499 27 745 -106 577
-312 1063 -1109 1288 -2114 8 -36 17 -72 19 -80 31 -127 91 -465 120 -675 3
-22 7 -53 10 -70 2 -16 7 -57 10 -90 4 -32 8 -62 10 -65 1 -3 6 -43 10 -90 3
-47 8 -98 10 -115 6 -47 18 -208 17 -227 0 -10 3 -20 7 -22 4 -3 8 0 8 7 0 10
14 82 28 152 3 11 18 90 35 175 17 85 33 164 36 175 2 11 9 47 14 80 5 33 12
69 14 80 9 46 38 202 42 225 2 14 7 41 10 60 3 19 8 46 10 60 3 14 7 36 9 50
7 31 9 44 34 200 22 134 48 296 56 345 10 58 15 90 20 130 3 22 8 50 10 62 3
12 8 46 11 75 3 29 7 60 9 68 3 8 7 38 10 65 3 28 10 75 15 105 14 83 18 110
25 175 5 52 13 106 30 225 2 14 6 50 9 80 5 47 9 74 21 160 3 23 15 120 30
260 3 25 7 68 10 96 3 28 8 68 10 90 2 21 6 62 10 89 10 92 15 139 20 200 5
56 13 149 21 220 1 17 5 68 8 115 6 81 9 115 21 255 6 75 34 508 41 635 3 52
7 122 9 155 26 390 26 1809 0 2225 -2 30 -6 105 -10 165 -4 61 -8 139 -10 175
-6 96 -14 190 -19 230 -3 19 -8 73 -11 120 -7 98 -11 143 -20 220 -3 30 -8 75
-10 100 -7 63 -13 118 -34 275 -5 44 -13 103 -16 130 -3 28 -8 57 -10 65 -2 8
-6 40 -10 70 -3 30 -7 66 -10 80 -2 14 -9 54 -14 90 -13 87 -18 109 -42 215
-12 50 -22 97 -24 105 -2 8 -22 80 -45 160 -68 232 -194 530 -309 735 -99 175
-226 367 -205 310z m-681 -2646 c295 -38 581 -176 803 -385 234 -220 382 -484
443 -793 36 -183 31 -459 -11 -616 -6 -22 -13 -51 -15 -64 -12 -63 -65 -197
-122 -306 -96 -184 -299 -409 -472 -524 -262 -173 -519 -252 -831 -252 -63 0
-132 2 -154 5 -21 3 -57 8 -80 11 -140 21 -330 84 -463 156 -396 213 -662 575
-758 1032 -29 139 -27 390 5 568 24 131 115 361 192 484 143 227 363 427 598
543 188 92 343 135 535 148 50 4 91 7 93 9 5 5 154 -5 237 -16z"/>
<path d="M42695 34329 c-285 -42 -543 -183 -732 -401 -138 -159 -231 -356
-269 -568 -17 -100 -20 -315 -4 -415 11 -76 34 -162 56 -212 8 -17 14 -34 14
-38 0 -15 84 -172 120 -225 183 -265 469 -450 785 -507 73 -13 351 -11 415 3
36 8 77 16 92 19 43 8 168 55 233 88 349 175 596 516 651 898 12 84 10 284 -3
364 -70 423 -365 785 -758 930 -170 63 -424 90 -600 64z m305 -364 c3 -2 23
-6 44 -9 220 -35 459 -221 568 -441 68 -137 83 -203 83 -365 -1 -122 -4 -158
-24 -225 -66 -228 -242 -437 -446 -530 -280 -127 -580 -102 -830 69 -54 37
-167 150 -205 207 -109 159 -150 300 -145 499 3 147 21 217 91 358 113 228
368 409 619 439 22 3 42 7 45 10 5 5 190 -6 200 -12z"/>
<path d="M42820 33700 c-141 -11 -255 -66 -356 -172 -173 -179 -202 -449 -75
-672 80 -139 262 -255 416 -265 28 -2 64 -4 80 -5 80 -5 226 42 310 100 84 58
187 199 210 289 5 17 10 37 12 45 13 49 11 212 -3 261 -62 209 -197 347 -395
403 -71 20 -109 23 -199 16z m-74 -319 c119 -73 155 -296 69 -431 -84 -134
-232 -102 -292 61 -65 175 22 389 157 389 19 0 49 -9 66 -19z m475 -12 c26
-13 50 -64 45 -93 -11 -60 -54 -92 -113 -83 -75 12 -108 93 -62 151 34 44 80
52 130 25z m-185 -463 c25 -25 34 -43 34 -67 0 -80 -75 -134 -145 -105 -44 19
-65 52 -65 102 0 35 5 47 35 73 50 44 95 43 141 -3z"/>
<path d="M37795 23043 c-101 -106 -268 -266 -452 -433 l-71 -65 24 -165 c13
-91 26 -192 30 -225 3 -33 7 -67 9 -75 3 -8 7 -32 11 -54 3 -21 7 -47 9 -56 4
-22 14 -93 20 -140 2 -20 6 -47 9 -60 3 -14 8 -47 11 -75 6 -64 13 -113 20
-145 2 -14 7 -47 11 -75 3 -27 8 -59 10 -70 3 -16 30 -205 60 -422 12 -93 15
-110 20 -138 3 -16 7 -41 9 -55 1 -14 7 -54 13 -90 6 -36 13 -87 17 -115 3
-27 7 -61 10 -75 2 -14 7 -45 10 -70 3 -25 11 -84 19 -132 9 -66 10 -88 1 -88
-6 0 -56 15 -111 34 -89 31 -289 86 -369 101 -59 11 -221 35 -274 40 -30 3
-56 7 -57 8 -1 1 -5 29 -9 62 -3 33 -8 71 -10 85 -2 14 -7 50 -10 80 -4 30 -8
64 -10 75 -1 11 -5 38 -8 60 -4 22 -9 65 -12 95 -4 30 -8 66 -10 80 -2 14 -11
86 -20 160 -8 75 -17 145 -19 155 -2 11 -7 47 -10 80 -4 33 -9 67 -11 75 -2 8
-6 46 -10 83 -3 37 -8 76 -10 85 -1 9 -6 44 -9 77 -4 33 -9 71 -11 85 -2 14
-6 46 -9 73 -11 90 -17 132 -24 165 l-7 33 -85 -56 c-47 -31 -129 -84 -183
-117 l-99 -61 6 -56 c3 -31 10 -83 15 -116 5 -33 13 -89 16 -125 14 -132 23
-204 29 -232 3 -13 8 -52 12 -88 9 -89 10 -99 28 -230 8 -63 18 -140 21 -170
3 -30 8 -66 10 -80 2 -14 6 -50 10 -80 3 -30 9 -80 14 -109 12 -73 9 -86 -20
-87 -38 -2 -171 -14 -199 -18 -14 -2 -46 -7 -71 -10 l-46 -6 -8 62 c-5 35 -10
70 -11 78 -1 8 -5 38 -8 65 -4 28 -8 57 -11 65 -2 8 -6 38 -10 65 -3 28 -8 64
-10 80 -7 47 -13 96 -20 151 -3 28 -8 61 -10 75 -3 13 -8 44 -11 69 -3 25 -7
52 -9 60 -7 38 -15 100 -20 150 -5 55 -7 68 -25 169 -6 30 -10 70 -10 88 0 18
-3 33 -7 33 -4 0 -70 -31 -147 -69 -172 -84 -255 -122 -366 -167 -47 -19 -96
-40 -110 -46 -14 -6 -34 -14 -45 -18 -130 -51 -183 -70 -320 -115 -232 -76
-243 -79 -435 -129 -177 -46 -529 -119 -630 -131 -30 -4 -67 -9 -82 -11 -16
-2 -43 -6 -60 -9 -18 -2 -55 -7 -83 -10 -27 -3 -68 -8 -90 -11 -22 -2 -65 -7
-95 -9 -30 -3 -84 -7 -120 -10 -345 -28 -768 -28 -1070 0 -25 2 -79 7 -120 10
-41 3 -91 7 -110 9 -114 12 -157 17 -175 21 -11 2 -45 7 -75 10 -30 3 -104 15
-164 26 -60 10 -114 19 -119 19 -8 0 -2 -134 7 -149 2 -4 7 -42 10 -86 4 -44
8 -91 10 -105 4 -27 15 -127 22 -200 3 -26 11 -49 20 -55 159 -101 212 -143
330 -260 147 -147 225 -255 308 -429 76 -158 99 -236 136 -451 9 -55 7 -372
-4 -420 -3 -16 -9 -46 -13 -65 -3 -19 -7 -40 -8 -46 -12 -56 -64 -205 -96
-272 -80 -173 -156 -280 -302 -426 -85 -85 -97 -102 -93 -125 11 -53 21 -137
31 -256 4 -38 8 -72 10 -75 2 -3 6 -41 10 -85 7 -79 8 -95 19 -185 3 -25 8
-70 11 -100 3 -30 8 -71 10 -90 3 -19 7 -57 10 -85 3 -27 7 -66 9 -85 8 -62
15 -123 22 -190 3 -36 7 -72 9 -81 2 -8 6 -49 10 -90 4 -41 9 -90 11 -109 3
-19 7 -57 9 -85 6 -69 15 -153 21 -196 12 -90 15 -120 34 -287 11 -97 22 -204
25 -237 3 -33 7 -76 10 -95 2 -19 7 -60 10 -90 7 -67 14 -126 20 -160 2 -14 7
-61 11 -105 4 -44 8 -87 9 -95 1 -8 6 -48 10 -88 l8 -73 184 -242 c102 -133
186 -243 188 -245 2 -2 1 115 -1 260 -6 441 -13 1028 -20 1543 -3 270 -7 593
-9 718 -3 208 1 271 11 185 3 -18 6 -51 9 -73 2 -22 7 -58 10 -80 5 -43 12
-94 20 -165 3 -25 8 -56 10 -70 2 -14 7 -50 10 -80 3 -30 8 -62 10 -70 2 -8 7
-46 11 -85 3 -38 7 -77 9 -85 5 -37 17 -129 21 -165 2 -22 7 -51 9 -65 2 -14
7 -52 10 -85 7 -65 12 -110 20 -165 3 -19 7 -54 10 -77 3 -24 7 -62 10 -85 3
-24 8 -60 11 -80 10 -72 14 -103 19 -153 3 -27 7 -66 10 -85 2 -19 7 -57 10
-85 4 -27 8 -61 10 -75 2 -14 7 -50 10 -80 4 -30 8 -66 10 -80 2 -14 7 -50 10
-80 3 -30 8 -62 10 -70 2 -8 7 -42 10 -75 7 -74 10 -99 18 -150 4 -22 9 -62
12 -90 3 -27 7 -63 10 -80 3 -16 7 -52 10 -80 14 -132 17 -152 21 -175 2 -14
7 -45 9 -70 6 -51 9 -75 19 -140 3 -25 8 -63 10 -85 14 -135 -20 -79 359 -572
56 -74 86 -105 105 -109 15 -3 47 -11 72 -19 43 -12 104 -27 115 -26 2 0 19
-5 37 -10 33 -10 51 -15 86 -23 23 -6 103 -26 122 -30 14 -4 99 -23 270 -62
130 -29 387 -82 430 -89 28 -4 218 -40 295 -55 66 -13 289 -49 340 -56 22 -2
47 -6 55 -9 8 -2 40 -7 70 -10 30 -3 66 -8 80 -10 51 -9 89 -15 131 -20 24 -3
61 -8 82 -11 44 -6 42 -22 22 167 -8 79 -16 171 -19 204 -3 33 -8 80 -10 105
-3 25 -8 77 -11 115 -12 132 -14 160 -19 215 -3 30 -8 71 -11 90 -3 19 -7 64
-10 100 -11 133 -17 196 -20 220 -4 24 -16 158 -19 210 -1 15 -11 29 -27 37
-273 131 -364 178 -464 241 -574 360 -985 865 -1187 1462 -20 58 -39 119 -44
135 -4 17 -8 35 -10 40 -4 13 -13 51 -18 73 -2 9 -9 35 -14 57 -6 22 -16 72
-22 112 -6 39 -13 80 -15 90 -3 18 -9 67 -21 173 -18 172 -5 683 20 707 3 4 5
-34 4 -83 -2 -81 8 -241 17 -304 3 -14 9 -56 15 -95 5 -38 12 -79 14 -90 54
-250 104 -419 178 -597 40 -99 176 -353 243 -455 131 -199 222 -311 395 -484
333 -334 699 -561 1150 -713 210 -71 422 -114 690 -141 63 -7 436 -7 491 0 20
2 56 6 80 9 24 3 67 8 94 11 28 3 61 8 75 10 14 3 39 8 55 11 212 37 541 147
752 252 590 294 1062 769 1345 1352 43 90 130 300 150 365 58 189 106 408 125
575 2 25 8 74 13 110 8 69 6 495 -3 520 -3 8 -8 47 -12 85 -6 80 -9 99 -29
200 -93 463 -263 843 -547 1221 -100 134 -300 350 -407 439 -67 56 -62 43 -92
250 -6 44 -18 121 -25 170 -8 50 -17 117 -21 150 -3 33 -8 62 -9 65 -2 3 -8
42 -14 86 -7 44 -14 91 -16 104 -2 13 -7 46 -10 74 -3 28 -8 60 -11 71 -2 11
-6 36 -8 55 -2 19 -7 51 -10 70 -4 19 -8 49 -10 65 -2 17 -9 59 -14 95 -6 36
-14 90 -17 120 -4 30 -8 57 -10 60 -1 3 -6 32 -10 65 -4 33 -9 69 -11 80 -1
11 -8 56 -13 100 -6 44 -13 89 -15 100 -7 37 -25 160 -31 205 -3 25 -7 55 -10
68 -2 13 -7 51 -10 85 -4 34 -8 65 -11 68 -2 3 -6 24 -8 45 -10 79 -15 111
-31 206 -8 53 -20 130 -25 170 -5 40 -14 102 -19 138 -5 36 -12 88 -16 115 -3
28 -8 57 -10 65 -2 8 -7 38 -11 65 -7 57 -8 62 -23 165 -6 41 -13 89 -15 105
-10 85 -30 195 -35 194 -3 0 -55 -52 -116 -116z m-945 -3117 c19 -2 64 -9 100
-16 36 -7 76 -14 90 -16 59 -10 80 -16 80 -22 0 -4 -48 -43 -106 -87 -58 -44
-170 -129 -249 -190 -79 -60 -212 -163 -296 -227 -174 -133 -339 -260 -952
-730 -235 -180 -454 -345 -485 -366 -91 -62 -225 -118 -327 -138 -22 -4 -47
-9 -55 -11 -33 -9 -239 -11 -285 -2 -28 5 -63 12 -80 15 -37 6 -97 26 -109 35
-4 4 2 39 13 77 19 61 27 72 56 86 18 9 36 16 40 16 16 0 240 112 351 175 412
236 773 492 1664 1180 l305 235 105 -5 c58 -3 121 -7 140 -9z m932 -313 c100
-58 157 -98 148 -106 -5 -4 -183 -141 -1230 -942 -1019 -780 -1316 -1008
-1338 -1029 -40 -35 -52 -71 -57 -163 -2 -49 -7 -135 -10 -193 -3 -58 -8 -145
-11 -195 l-6 -90 -93 -73 c-52 -40 -100 -74 -107 -77 -8 -3 -144 167 -353 441
-187 245 -341 449 -343 454 -2 5 52 9 120 9 239 0 442 48 653 155 108 55 186
109 390 266 72 55 245 188 385 295 140 107 300 229 355 272 422 324 1022 783
1175 901 139 106 190 140 205 136 11 -3 63 -31 117 -61z m523 -413 c-2 -3 -65
-53 -140 -111 -75 -57 -201 -153 -280 -214 -79 -60 -212 -163 -296 -227 -85
-65 -257 -197 -384 -294 -966 -742 -1455 -1114 -1462 -1114 -15 1 -86 102 -76
108 5 4 95 73 199 153 198 153 916 704 1139 874 72 55 373 285 669 513 l539
413 48 -47 c27 -26 46 -50 44 -54z m305 -369 c49 -74 90 -139 90 -145 -1 -6
-253 -204 -562 -441 -1097 -840 -1545 -1182 -1678 -1285 -74 -57 -173 -133
-219 -168 -46 -36 -90 -65 -96 -66 -7 0 -68 70 -136 158 -88 114 -120 162
-113 172 5 7 320 251 699 541 380 291 737 565 795 609 58 44 294 225 525 402
231 177 449 345 485 373 l65 50 27 -33 c16 -18 68 -93 118 -167z m350 -808 c8
-38 15 -73 16 -79 1 -6 5 -20 8 -31 5 -16 -12 -34 -91 -94 -211 -161 -1108
-848 -1667 -1277 -323 -249 -593 -452 -600 -452 -10 1 -111 128 -111 141 0 4
27 27 60 53 33 25 137 104 230 176 94 71 247 188 340 260 94 71 238 182 320
245 83 63 209 160 280 215 948 727 1189 910 1194 910 4 0 14 -30 21 -67z m64
-605 c-5 -110 -13 -220 -18 -245 -3 -12 -7 -48 -11 -80 -3 -32 -11 -78 -16
-103 -6 -25 -13 -56 -15 -70 -24 -130 -113 -380 -204 -565 -121 -249 -279
-464 -493 -672 -282 -275 -604 -467 -986 -590 -87 -28 -154 -44 -325 -79 -11
-2 -40 -6 -65 -9 -25 -3 -62 -8 -81 -11 -55 -9 -384 -15 -396 -6 -5 4 -111
140 -235 302 -124 162 -247 323 -273 357 -57 73 -58 67 45 144 78 58 68 57
244 19 55 -12 111 -24 125 -26 14 -3 39 -9 55 -13 82 -24 273 -54 307 -47 39
7 104 55 821 607 123 94 963 738 1122 859 55 42 165 127 245 188 80 62 148
112 151 112 4 0 5 -33 3 -72z m-4726 -443 c257 -334 436 -568 481 -633 81
-115 568 -751 611 -797 20 -22 81 -98 135 -170 54 -71 118 -155 142 -185 24
-30 43 -58 43 -62 0 -11 -147 51 -294 126 -436 219 -790 559 -1043 1001 -28
50 -61 113 -73 140 -12 28 -28 63 -35 80 -67 144 -151 429 -170 569 -3 27 -8
52 -10 55 -1 3 -6 44 -10 91 l-7 84 88 -114 c48 -63 112 -146 142 -185z m1501
-153 c94 -122 172 -227 174 -233 2 -9 -84 -49 -104 -49 -4 0 -63 73 -132 163
-121 157 -124 163 -122 207 2 25 3 67 4 94 1 27 3 47 5 45 2 -2 81 -104 175
-227z m-338 -379 c28 -38 56 -73 61 -79 10 -13 -86 -89 -100 -80 -13 8 -115
143 -114 151 1 8 84 75 94 75 3 0 30 -30 59 -67z m810 -235 l62 -81 -39 6
c-21 3 -46 8 -54 10 -8 2 -32 7 -52 11 -30 6 -46 19 -74 58 -20 27 -35 51 -33
53 2 1 22 6 43 9 22 4 41 8 42 9 2 2 12 3 22 4 14 1 40 -24 83 -79z"/>
<path d="M29075 21563 c-136 -105 -138 -107 -109 -116 130 -39 241 -150 286
-285 35 -106 6 -248 -78 -379 -73 -114 -226 -254 -359 -328 -167 -92 -336
-117 -475 -70 -96 33 -146 63 -202 123 -51 54 -88 121 -108 194 l-12 47 -102
-76 c-55 -42 -111 -85 -123 -96 l-22 -19 48 -62 c26 -33 106 -137 177 -231 72
-93 159 -208 195 -254 35 -46 111 -145 168 -220 135 -176 1160 -1512 1301
-1696 25 -33 98 -127 160 -210 98 -128 745 -972 1139 -1485 66 -85 154 -200
196 -255 69 -90 76 -97 71 -65 -3 19 -9 69 -12 110 -12 143 -24 275 -29 310
-2 14 -7 61 -10 105 -7 85 -12 131 -20 205 -2 25 -7 72 -10 105 -3 33 -7 80
-10 105 -3 25 -7 70 -10 100 -7 85 -15 162 -19 195 -2 17 -7 66 -11 110 -4 44
-9 91 -10 105 -2 14 -4 32 -4 41 -1 13 -25 15 -173 15 -95 0 -186 3 -203 7
-16 4 -61 12 -98 18 -38 6 -116 26 -175 46 -402 131 -723 417 -907 807 -53
111 -99 248 -110 322 -3 21 -8 45 -11 53 -26 77 -26 400 1 531 2 14 7 39 10
55 15 77 62 209 108 305 151 318 408 561 732 694 166 67 317 99 502 105 37 1
42 14 31 83 -4 27 -10 85 -13 130 -3 46 -8 97 -10 113 -2 17 -6 64 -10 105
-12 141 -15 149 -55 150 -8 0 -80 21 -160 46 -80 25 -149 46 -155 48 -85 23
-163 49 -345 117 -30 11 -71 26 -90 34 -156 57 -516 213 -652 281 -37 19 -71
34 -76 34 -4 0 -70 -48 -147 -107z m770 -792 c126 -57 150 -216 48 -313 -78
-75 -196 -70 -270 10 -54 58 -66 130 -34 204 44 102 155 145 256 99z"/>
<path d="M38662 21022 c-113 -228 -161 -335 -158 -352 5 -34 24 -175 31 -225
8 -65 14 -114 31 -230 8 -60 17 -123 19 -140 13 -105 19 -126 35 -135 53 -29
361 -396 486 -580 219 -322 411 -718 495 -1020 7 -25 14 -49 15 -55 10 -32 54
-211 58 -238 3 -18 8 -43 10 -56 3 -13 8 -49 12 -80 3 -31 8 -59 10 -62 25
-42 25 -614 0 -824 -10 -82 -19 -152 -21 -155 -2 -3 -6 -26 -10 -50 -22 -158
-110 -473 -200 -715 -47 -128 -213 -448 -303 -585 -360 -550 -844 -923 -1462
-1130 -134 -44 -211 -67 -260 -75 -19 -3 -71 -14 -115 -24 -44 -11 -102 -22
-130 -25 -27 -4 -77 -11 -110 -16 -126 -18 -259 -25 -510 -25 -274 0 -367 6
-634 37 -20 2 -42 -3 -38 -9 3 -5 8 -51 11 -103 4 -52 9 -102 11 -110 2 -8 6
-62 10 -120 4 -57 8 -107 10 -110 2 -3 6 -53 10 -112 3 -59 8 -117 10 -128 2
-11 7 -62 11 -113 3 -50 7 -101 8 -112 7 -64 18 -177 21 -220 2 -43 12 -145
19 -223 4 -35 -16 -30 201 -47 39 -3 95 -8 125 -10 114 -10 168 -14 275 -20
61 -4 125 -8 143 -10 17 -2 32 -3 32 -1 0 2 -7 20 -15 40 -34 81 38 150 220
211 161 54 289 70 575 70 236 0 315 -7 456 -40 132 -31 220 -72 267 -124 49
-55 47 -80 -12 -145 l-26 -28 100 6 c55 3 161 8 235 11 74 3 169 8 210 11 185
12 218 14 260 19 25 2 79 7 120 10 133 10 194 15 245 20 28 3 70 8 95 11 25 2
61 7 80 9 19 3 62 7 95 11 69 7 106 11 155 18 19 3 62 8 95 11 33 3 67 7 75
10 8 2 40 6 71 10 31 3 67 8 80 10 13 3 62 10 109 16 47 6 121 17 165 25 44 7
98 16 120 19 22 3 54 7 70 10 17 3 66 12 110 21 45 8 96 16 114 19 18 2 46 7
62 10 17 4 40 8 52 10 12 1 101 19 197 38 96 20 186 38 200 41 47 8 225 47
325 71 55 13 116 27 135 30 19 3 58 12 85 20 28 8 65 17 84 20 19 3 37 8 41
10 3 2 17 6 31 9 50 10 71 15 89 21 10 3 28 8 39 10 31 7 50 12 116 31 33 9
70 19 83 21 33 8 37 23 5 16 -38 -7 -276 -7 -338 0 -107 14 -185 28 -278 51
-87 23 -232 80 -344 137 -371 189 -678 528 -837 927 -36 89 -81 247 -92 322
-3 19 -7 42 -9 50 -18 67 -25 335 -13 451 13 114 58 308 95 408 34 90 114 255
147 302 13 20 12 25 -10 59 -14 21 -34 69 -44 107 -10 37 -33 118 -50 178 -17
61 -36 128 -41 149 -5 22 -30 107 -53 190 -38 131 -87 304 -156 556 -53 195
-152 546 -170 605 -5 17 -41 147 -80 290 -39 143 -82 296 -95 340 -14 44 -33
114 -44 155 -11 41 -40 149 -66 240 -26 91 -50 179 -55 195 -4 17 -19 71 -33
120 -14 50 -46 167 -72 260 -26 94 -55 199 -65 235 -11 36 -33 117 -50 180
-18 63 -38 136 -46 161 -8 25 -16 54 -19 65 -12 52 -72 254 -77 259 -5 5 -125
-195 -352 -587 -27 -49 -53 -88 -57 -88 -4 0 -12 33 -19 73 -6 39 -14 83 -16
97 -3 14 -11 61 -19 105 -8 44 -19 105 -24 135 -6 30 -13 69 -16 85 -2 17 -9
55 -15 85 -5 30 -12 73 -15 95 -4 22 -8 47 -10 55 -2 8 -7 31 -10 50 -9 55
-26 153 -31 180 -3 14 -9 52 -14 86 -5 34 -12 67 -14 75 -3 8 -8 32 -11 54 -3
22 -17 101 -31 175 -14 74 -27 153 -31 175 -3 22 -8 48 -12 57 -4 12 -57 -85
-169 -310z"/>
<path d="M30610 20253 c-381 -61 -719 -323 -863 -667 -74 -176 -97 -292 -99
-482 -3 -431 217 -828 593 -1070 102 -65 255 -129 359 -150 14 -3 41 -9 60
-14 83 -21 258 -28 361 -16 483 59 864 396 983 871 26 105 40 334 25 425 -5
25 -10 61 -12 80 -13 100 -68 257 -134 380 -116 217 -325 419 -544 524 -119
57 -133 63 -240 92 -83 23 -115 27 -279 29 -102 1 -196 1 -210 -2z m319 -397
c4 -3 23 -8 42 -11 111 -19 275 -106 380 -203 150 -139 247 -317 278 -512 9
-55 7 -213 -3 -260 -3 -14 -8 -38 -12 -55 -29 -142 -145 -319 -269 -412 -243
-183 -572 -205 -841 -57 -279 152 -459 449 -459 754 0 289 150 544 400 679 52
29 191 72 265 84 33 5 209 -1 219 -7z"/>
<path d="M30740 19607 c-111 -12 -220 -68 -303 -156 -104 -111 -141 -207 -140
-371 0 -166 43 -278 151 -392 88 -93 169 -143 287 -175 47 -13 222 -12 269 2
98 30 174 76 239 144 109 116 153 239 144 406 -7 119 -30 190 -94 287 -100
153 -257 245 -443 261 -19 1 -69 -1 -110 -6z m-59 -268 c104 -35 162 -173 125
-299 -62 -209 -293 -264 -393 -93 -23 39 -28 61 -29 118 -4 185 147 324 297
274z m485 -257 c40 -21 57 -51 57 -98 0 -35 -5 -51 -24 -69 -69 -68 -180 -17
-179 83 1 78 77 121 146 84z m-269 -284 c55 -51 66 -117 28 -174 -33 -51 -116
-64 -172 -27 -53 35 -72 127 -39 178 37 57 134 69 183 23z"/>
<path d="M41988 16574 c-2 -1 -25 -5 -53 -8 -27 -4 -57 -9 -65 -11 -8 -2 -26
-6 -40 -9 -56 -11 -75 -16 -134 -37 -443 -153 -763 -500 -880 -955 -37 -141
-38 -148 -42 -344 -3 -146 0 -191 16 -270 11 -52 22 -105 25 -118 5 -29 33
-120 45 -147 5 -11 19 -45 30 -75 65 -169 233 -399 395 -541 75 -66 220 -166
297 -205 92 -47 250 -104 340 -124 143 -31 181 -35 353 -34 226 0 383 36 584
131 177 83 387 259 503 420 142 196 232 435 256 673 59 607 -229 1164 -762
1470 -154 89 -310 142 -511 175 -65 10 -348 18 -357 9z m367 -419 c231 -52
403 -150 565 -321 203 -214 312 -490 306 -774 -3 -124 -17 -210 -49 -305 -139
-406 -501 -666 -924 -663 -287 2 -545 112 -753 318 -139 139 -222 277 -289
482 -45 139 -51 408 -12 558 54 203 177 394 335 519 236 186 529 252 821 186z"/>
<path d="M42095 15819 c-22 -4 -53 -9 -70 -12 -52 -8 -146 -45 -203 -79 -121
-74 -246 -241 -278 -373 -2 -5 -6 -21 -9 -35 -17 -69 -17 -218 0 -299 9 -47
21 -92 26 -100 4 -9 16 -34 25 -56 83 -190 264 -341 473 -395 80 -21 217 -29
277 -16 16 3 38 8 49 10 58 12 144 51 205 91 245 163 347 483 248 780 -64 196
-250 385 -443 450 -90 31 -228 46 -300 34z m-84 -337 c44 -17 99 -72 125 -125
79 -154 7 -374 -147 -453 -128 -64 -261 -17 -330 116 -20 38 -23 60 -23 140 0
85 3 101 28 150 45 89 120 157 196 181 32 10 117 5 151 -9z m178 -728 c55 -46
71 -104 44 -161 -51 -108 -224 -77 -240 42 -7 52 4 84 39 117 42 39 112 40
157 2z"/>
<path d="M24088 28577 l-327 -252 62 -32 c119 -60 204 -159 248 -290 34 -100
32 -259 -5 -362 -30 -86 -89 -169 -143 -202 -51 -30 -50 -29 -33 -42 36 -27
74 -92 91 -155 25 -88 20 -271 -10 -387 -81 -309 -278 -585 -519 -727 l-43
-25 103 -58 c96 -54 550 -327 663 -397 28 -18 163 -107 302 -199 l252 -168 -5
52 c-5 58 -12 119 -19 157 -2 14 -7 57 -10 95 -3 39 -8 84 -10 100 -2 17 -7
55 -10 85 -3 30 -7 69 -10 85 -3 17 -7 58 -10 92 -2 34 -7 72 -9 85 -3 13 -8
57 -11 97 -4 41 -8 77 -10 80 -1 4 -6 46 -10 94 -3 48 -8 96 -10 105 -5 30
-19 159 -30 277 -3 33 -7 76 -10 95 -2 19 -7 60 -10 90 -3 30 -8 63 -11 73 -3
9 -2 17 3 17 8 0 13 -7 101 -160 30 -52 62 -108 72 -125 67 -114 281 -486 422
-732 73 -127 135 -230 138 -228 3 2 4 39 3 82 -1 43 -4 274 -7 513 -4 239 -9
581 -11 760 -3 179 -5 404 -5 501 l0 176 -412 538 c-227 296 -417 540 -423
541 -5 2 -157 -111 -337 -249z"/>
<path d="M26463 26164 c3 -5 8 -36 11 -69 8 -98 26 -305 32 -380 3 -38 7 -92
9 -120 3 -27 7 -84 10 -125 8 -100 15 -186 20 -235 10 -105 20 -226 30 -371 1
-22 5 -63 9 -90 3 -27 8 -87 11 -134 3 -47 7 -106 10 -132 3 -26 7 -80 10
-120 3 -40 8 -97 10 -125 2 -29 2 -53 0 -53 -2 0 -29 33 -59 73 -170 222 -251
329 -446 582 -118 154 -237 310 -265 346 -27 37 -52 65 -55 62 -2 -2 -5 -21
-6 -41 -1 -42 -13 -236 -19 -327 -3 -33 -7 -98 -10 -145 -2 -47 -7 -123 -10
-170 l-6 -85 118 -100 c278 -234 499 -440 826 -767 l349 -348 -6 58 c-3 31 -9
161 -12 287 -7 246 -9 314 -18 525 -3 74 -8 209 -11 300 -6 176 -12 334 -20
520 -2 63 -7 198 -11 300 -3 102 -7 201 -8 221 -2 30 -41 87 -241 348 -131
171 -243 315 -248 318 -6 3 -8 2 -4 -3z"/>
<path d="M48413 23292 c-181 -139 -281 -222 -279 -232 1 -8 106 -150 233 -315
558 -729 741 -968 832 -1086 53 -70 97 -126 99 -124 3 3 10 55 17 135 4 36 8
76 10 90 2 14 7 68 10 120 4 52 8 97 10 100 2 3 6 46 10 95 4 50 9 92 10 95 2
3 6 50 10 105 4 55 9 103 11 106 1 3 6 41 9 84 4 43 8 87 10 97 3 11 -35 70
-98 152 -163 215 -610 796 -611 795 -1 0 -128 -98 -283 -217z"/>
<path d="M50646 20933 c-3 -15 -8 -57 -11 -93 -7 -76 -12 -134 -20 -210 -6
-57 -9 -78 -20 -190 -8 -78 -13 -127 -20 -200 -3 -30 -7 -73 -9 -95 -2 -22 -7
-69 -10 -105 -4 -36 -9 -80 -11 -99 -4 -31 12 -54 188 -285 106 -138 209 -272
229 -298 l35 -48 8 83 c4 45 9 89 10 97 1 8 5 49 9 90 3 41 8 91 11 110 3 19
7 64 10 100 3 36 8 88 12 115 3 28 7 64 8 80 3 28 10 108 20 200 2 22 7 74 10
115 l6 75 -178 232 c-98 127 -199 259 -225 293 -46 60 -46 60 -52 33z"/>
<path d="M51516 19747 c-4 -40 -9 -87 -11 -103 -2 -16 -7 -58 -10 -94 -3 -36
-7 -78 -10 -95 -2 -16 -6 -64 -10 -105 -4 -41 -9 -88 -11 -105 -2 -16 -6 -61
-9 -100 -3 -38 -10 -113 -16 -165 -6 -52 -13 -122 -16 -155 l-5 -61 203 -264
c437 -571 521 -680 528 -684 8 -5 577 430 574 439 -1 3 -97 131 -214 283 -117
152 -234 304 -259 337 -25 33 -77 101 -115 150 -38 50 -188 245 -333 435 -145
190 -267 349 -272 353 -4 5 -11 -25 -14 -66z"/>
</g>
</svg>
